<?xml version="1.0" encoding="UTF-8"?>
<svg width="870px" height="869px" viewBox="0 0 870 869" version="1.1" xmlns="http://www.w3.org/2000/svg" xmlns:xlink="http://www.w3.org/1999/xlink">
    <!-- Generator: Sketch 43.2 (39069) - http://www.bohemiancoding.com/sketch -->
    <title>Artboard 2 Copy 40</title>
    <desc>Created with Sketch.</desc>
    <defs>
        <rect id="path-1" x="374" y="534" width="110" height="12"></rect>
        <rect id="path-2" x="365" y="509" width="128" height="29"></rect>
    </defs>
    <g id="Page-1" stroke="none" stroke-width="1" fill="none" fill-rule="evenodd">
        <g id="Artboard-2-Copy-40">
            <circle id="Oval-10-Copy-7" fill="#A2ADB2" cx="215.5" cy="201.5" r="14.5"></circle>
            <circle id="Oval-10-Copy-8" fill="#A2ADB2" cx="663.5" cy="552.5" r="14.5"></circle>
            <circle id="Oval-10-Copy-9" fill="#A2ADB2" cx="829.5" cy="494.5" r="14.5"></circle>
            <circle id="Oval-10-Copy-14" stroke="#A2ADB2" stroke-width="5" cx="726" cy="361" r="16"></circle>
            <circle id="Oval-21" fill="#F1F2F3" cx="96.5" cy="726.5" r="79.5"></circle>
            <circle id="Oval-21" stroke="#A2ADB2" stroke-width="5" cx="89.5" cy="720.5" r="79.5"></circle>
            <circle id="Oval-21-Copy-2" fill="#E1E4E6" cx="518" cy="669" r="104"></circle>
            <circle id="Oval-21-Copy-2" stroke="#A2ADB2" stroke-width="5" cx="512" cy="662" r="104"></circle>
            <circle id="Oval-21-Copy-2" fill="#F1F2F3" cx="386" cy="646" r="52"></circle>
            <circle id="Oval-21-Copy-2" stroke="#A2ADB2" stroke-width="5" cx="381" cy="640" r="52"></circle>
            <circle id="Oval-21-Copy-2" fill="#FFFFFF" cx="675.5" cy="703.5" r="88.5"></circle>
            <circle id="Oval-21-Copy-2" fill="#F1F2F3" cx="681.5" cy="709.5" r="88.5"></circle>
            <circle id="Oval-21-Copy-2" stroke="#A2ADB2" stroke-width="5" cx="675.5" cy="703.5" r="88.5"></circle>
            <circle id="Oval-21-Copy-10" fill="#FFFFFF" cx="604.5" cy="772.5" r="67.5"></circle>
            <circle id="Oval-21-Copy-10" fill="#E1E4E6" cx="610.5" cy="778.5" r="67.5"></circle>
            <circle id="Oval-21-Copy-10" stroke="#A2ADB2" stroke-width="5" cx="604.5" cy="772.5" r="67.5"></circle>
            <circle id="Oval-21-Copy-11" fill="#FFFFFF" cx="793.5" cy="723.5" r="61.5"></circle>
            <circle id="Oval-21-Copy-11" fill="#E1E4E6" cx="797.5" cy="730.5" r="61.5"></circle>
            <circle id="Oval-21-Copy-11" stroke="#A2ADB2" stroke-width="5" cx="793.5" cy="723.5" r="61.5"></circle>
            <circle id="Oval-21-Copy" fill="#FFFFFF" cx="243.5" cy="703.5" r="116.5"></circle>
            <circle id="Oval-21-Copy" fill="#E1E4E6" cx="250.5" cy="708.5" r="116.5"></circle>
            <circle id="Oval-21-Copy" stroke="#A2ADB2" stroke-width="5" cx="243.5" cy="703.5" r="116.5"></circle>
            <circle id="Oval-21-Copy-4" fill="#FFFFFF" cx="410" cy="765" r="91"></circle>
            <circle id="Oval-21-Copy-4" fill="#F1F2F3" cx="417" cy="773" r="91"></circle>
            <circle id="Oval-21-Copy-4" stroke="#A2ADB2" stroke-width="5" cx="410" cy="765" r="91"></circle>
            <g id="Rectangle-3">
                <use fill="#B1CCE8" fill-rule="evenodd" xlink:href="#path-1"></use>
                <rect stroke="#A2ADB2" stroke-width="4" x="376" y="536" width="106" height="8"></rect>
            </g>
            <g id="Rectangle-23">
                <use fill="#CEF0FD" fill-rule="evenodd" xlink:href="#path-2"></use>
                <rect stroke="#A2ADB2" stroke-width="4" x="367" y="511" width="124" height="25"></rect>
            </g>
            <path d="M353.641492,514 C332.321201,461.999367 319,388.048679 319,306 C319,148.598846 368.02482,21 428.5,21 C488.97518,21 538,148.598846 538,306 C538,388.048679 524.678799,461.999367 503.358508,514 L353.641492,514 Z" id="Combined-Shape" stroke="#A2ADB2" stroke-width="6" fill="#FFFFFF"></path>
            <circle id="Oval" fill="#E8A5AE" cx="429" cy="218" r="34"></circle>
            <path d="M344.133399,151 C363.864916,76.1192488 396.978546,27 434.5,27 C472.021454,27 505.135084,76.1192488 524.866601,151 L344.133399,151 Z" id="Combined-Shape" fill="#E8A5AE"></path>
            <path d="M338.133399,142 C357.864916,67.1192488 390.978546,18 428.5,18 C466.021454,18 499.135084,67.1192488 518.866601,142 L338.133399,142 Z" id="Combined-Shape" stroke="#A2ADB2" stroke-width="6"></path>
            <path d="M327.156784,380.98498 C327.156784,380.98498 238.009865,466.644589 231.974443,473.472287 C225.939022,480.299985 222.103937,487.021085 224.01319,497.668358 C238.608303,573.177339 241.9676,583.201203 266.051407,649.772176 C270.293723,661.498525 280.021168,654.918708 280.665435,654.263002 C280.665435,645.672253 286.502431,535.137671 353.870193,491.930979 C339.98579,439.20686 327.156784,380.98498 327.156784,380.98498 Z" id="Path-71" fill="#FFFFFF"></path>
            <path d="M339.156784,380.98498 C339.156784,380.98498 250.009865,466.644589 243.974443,473.472287 C237.939022,480.299985 234.103937,487.021085 236.01319,497.668358 C250.608303,573.177339 253.9676,583.201203 278.051407,649.772176 C282.293723,661.498525 292.021168,654.918708 292.665435,654.263002 C292.665435,645.672253 298.502431,535.137671 365.870193,491.930979 C351.98579,439.20686 339.156784,380.98498 339.156784,380.98498 Z" id="Path-71" fill="#E8A5AE"></path>
            <path d="M329.156784,376.98498 C329.156784,376.98498 240.009865,462.644589 233.974443,469.472287 C227.939022,476.299985 224.103937,483.021085 226.01319,493.668358 C240.608303,569.177339 243.9676,579.201203 268.051407,645.772176 C272.293723,657.498525 282.021168,650.918708 282.665435,650.263002 C282.665435,641.672253 288.502431,531.137671 355.870193,487.930979 C341.98579,435.20686 329.156784,376.98498 329.156784,376.98498 Z" id="Path-71" stroke="#A2ADB2" stroke-width="6"></path>
            <path d="M601.156784,376.98498 C601.156784,376.98498 512.009865,462.644589 505.974443,469.472287 C499.939022,476.299985 496.103937,483.021085 498.01319,493.668358 C512.608303,569.177339 515.9676,579.201203 540.051407,645.772176 C544.293723,657.498525 554.021168,650.918708 554.665435,650.263002 C554.665435,641.672253 560.502431,531.137671 627.870193,487.930979 C613.98579,435.20686 601.156784,376.98498 601.156784,376.98498 Z" id="Path-71" fill="#FFFFFF" transform="translate(562.694893, 514.838628) scale(-1, 1) translate(-562.694893, -514.838628) "></path>
            <path d="M593.156784,379.98498 C593.156784,379.98498 504.009865,465.644589 497.974443,472.472287 C491.939022,479.299985 488.103937,486.021085 490.01319,496.668358 C504.608303,572.177339 507.9676,582.201203 532.051407,648.772176 C536.293723,660.498525 546.021168,653.918708 546.665435,653.263002 C546.665435,644.672253 552.502431,534.137671 619.870193,490.930979 C605.98579,438.20686 593.156784,379.98498 593.156784,379.98498 Z" id="Path-71" fill="#E8A5AE" transform="translate(554.694893, 517.838628) scale(-1, 1) translate(-554.694893, -517.838628) "></path>
            <path d="M601.156784,376.98498 C601.156784,376.98498 512.009865,462.644589 505.974443,469.472287 C499.939022,476.299985 496.103937,483.021085 498.01319,493.668358 C512.608303,569.177339 515.9676,579.201203 540.051407,645.772176 C544.293723,657.498525 554.021168,650.918708 554.665435,650.263002 C554.665435,641.672253 560.502431,531.137671 627.870193,487.930979 C613.98579,435.20686 601.156784,376.98498 601.156784,376.98498 Z" id="Path-71" stroke="#A2ADB2" stroke-width="6" transform="translate(562.694893, 514.838628) scale(-1, 1) translate(-562.694893, -514.838628) "></path>
            <circle id="Oval-18" fill="#71A1D5" cx="431.5" cy="220.5" r="25.5"></circle>
            <circle id="Oval-18" stroke="#A2ADB2" stroke-width="5" cx="428.5" cy="216.5" r="25.5"></circle>
            <circle id="Oval-19" fill="#FFFFFF" cx="442" cy="211" r="6"></circle>
            <polygon id="Path-72" stroke="#A2ADB2" stroke-width="6" fill="#E8A5AE" points="412 395 419.109786 663.168684 438.493401 663.724867 445.583844 395"></polygon>
            <path d="M630.280833,236.554889 C629.277807,234.591578 627.644225,234.603087 626.645139,236.555165 L621.773515,246.073656 L610.959031,247.639889 C608.772518,247.956556 608.277071,249.46431 609.85112,251.006279 L617.587264,258.584763 L615.820139,268.956682 C615.448273,271.139305 616.743624,272.090893 618.699847,271.089048 L628.276312,266.18463 L638.159062,271.191499 C640.130546,272.190307 641.426302,271.231867 641.054752,269.059764 L639.26219,258.580339 L647.108339,251.090455 C648.705359,249.56595 648.226587,248.067658 646.046876,247.745096 L635.175859,246.136363 L630.280833,236.554889 Z" id="Path-83" stroke="#A2ADB2" fill="#A2ADB2" stroke-linecap="round" stroke-linejoin="round" transform="translate(628.500000, 253.000000) rotate(19.000000) translate(-628.500000, -253.000000) "></path>
            <path d="M150.774032,483.559256 C149.769775,481.593533 148.142325,481.589152 147.132364,483.562479 L140.552786,496.418079 L125.957282,498.531908 C123.771735,498.848435 123.274841,500.353891 124.852247,501.899149 L135.295633,512.129702 L132.903457,526.170286 C132.532006,528.350474 133.826825,529.300533 135.78828,528.296008 L148.71909,521.673722 L162.05076,528.427907 C164.018048,529.424588 165.310204,528.463277 164.936908,526.280967 L162.515309,512.124147 L173.107195,502.013199 C174.704847,500.48809 174.231834,498.990086 172.051948,498.667499 L157.383637,496.496828 L150.774032,483.559256 Z" id="Path-83" stroke="#A2ADB2" fill="#A2ADB2" stroke-linecap="round" stroke-linejoin="round"></path>
            <path d="M34.8396037,267.675161 C34.0847971,266.19771 32.8636778,266.190348 32.1102768,267.662391 L28.3378135,275.033271 L19.978877,276.243873 C18.3336887,276.482142 17.9639635,277.619614 19.145405,278.776979 L25.1251092,284.634818 L23.7565746,292.667264 C23.4780203,294.302204 24.4476397,295.015365 25.9259701,294.258264 L33.3283327,290.467274 L40.9801933,294.343914 C42.4559553,295.091575 43.425844,294.373818 43.1450232,292.732122 L41.7593553,284.631423 L47.8348676,278.831777 C49.0306372,277.690303 48.6726864,276.568535 47.0406136,276.327015 L38.6233339,275.081395 L34.8396037,267.675161 Z" id="Path-83" stroke="#A2ADB2" fill="#A2ADB2" stroke-linecap="round" stroke-linejoin="round"></path>
            <g id="Group" transform="translate(384.000000, 273.000000)">
                <path d="M65.0966546,0.711809993 L73.8635833,0.840025175 L73.9351264,26.2658017 C73.9351264,26.2658017 67.3978466,26.1628083 64.3851899,26.6851375 C61.3725332,27.2074667 56.8656225,29.0266311 56.8656225,29.0266311 C56.3567039,29.2245788 55.5691635,29.6236337 55.0996604,29.9249417 C55.0996604,29.9249417 52.2310714,31.7310019 51.5087117,32.4116062 C50.7863519,33.0922105 48.0726819,36.5954638 48.0726819,36.5954638 C47.7368979,37.0256316 47.2815618,37.7861826 47.0641357,38.2825295 C47.0641357,38.2825295 45.1742546,42.4564278 44.504076,45.0264816 C43.8338975,47.5965354 43.8431309,53.2893269 43.8431309,53.2893269 C43.8381388,53.8375403 43.9102001,54.7240293 44.0051976,55.2700541 C44.0051976,55.2700541 44.6088222,58.8215515 44.8689154,59.7910652 C45.1290087,60.7605789 47.0420252,64.7896902 47.0420252,64.7896902 C47.2754572,65.2868878 47.7833247,66.0119862 48.1659312,66.3986835 L51.685999,69.9563876 C52.4621369,70.740824 53.8637774,71.8205152 54.8198424,72.3697791 L59.9412302,75.3120408 L61.3992827,75.5448336 L0.160635575,75.7163301 L0.136294131,66.5451379 L9.46083744,66.5101747 L9.52501033,57.2517959 L18.5698483,57.1559791 L18.7147906,47.7535432 L27.9778164,47.6960089 L28.0630114,38.3991263 L37.3767117,38.2517499 L37.5550681,28.9431392 L46.6734483,28.8506472 L46.711372,19.3177694 L55.9636852,19.2931892 L56.0757004,10.0661584 L65.1050366,10.1342805 L65.0966546,0.711809993 Z" id="Path-84" stroke="#0079C0" fill="#0079C0"></path>
                <path d="M88.5232653,72.6089796 C82.5881336,75.780424 75.950853,77.3661224 68.6112245,77.3661224 C64.8961039,77.3661224 61.4868523,76.7658223 58.3833673,75.5652041 C55.2798824,74.3645858 52.6068479,72.6656232 50.3641837,70.4682653 C48.1215194,68.2709074 46.3659247,65.6318521 45.0973469,62.5510204 C43.8287692,59.4701887 43.1944898,56.0496106 43.1944898,52.2891837 C43.1944898,48.438144 43.8287692,44.938281 45.0973469,41.7894898 C46.3659247,38.6406985 48.1215194,35.9563376 50.3641837,33.7363265 C52.6068479,31.5163154 55.2798824,29.8060264 58.3833673,28.6054082 C61.4868523,27.4047899 64.8961039,26.8044898 68.6112245,26.8044898 C72.2810388,26.8044898 75.7242696,27.2462201 78.9410204,28.1296939 C82.1577712,29.0131677 85.0346812,30.5875397 87.5718367,32.8528571 L81.2516327,39.2410204 C79.7112168,37.7459109 77.8423579,36.5906163 75.645,35.775102 C73.4476421,34.9595878 71.1257265,34.5518367 68.6791837,34.5518367 C66.1873345,34.5518367 63.9333774,34.993567 61.9172449,35.8770408 C59.9011124,36.7605146 58.1681705,37.9837677 56.7183673,39.5468367 C55.2685642,41.1099058 54.1472489,42.933459 53.3543878,45.017551 C52.5615266,47.1016431 52.165102,49.3442737 52.165102,51.7455102 C52.165102,54.3279721 52.5615266,56.7065197 53.3543878,58.8812245 C54.1472489,61.0559292 55.2685642,62.9361145 56.7183673,64.5218367 C58.1681705,66.1075589 59.9011124,67.3534649 61.9172449,68.2595918 C63.9333774,69.1657188 66.1873345,69.6187755 68.6791837,69.6187755 C70.8538884,69.6187755 72.90397,69.4149 74.8294898,69.0071429 C76.7550096,68.5993857 78.4652986,67.9651063 79.9604082,67.1042857 L79.9604082,55.755102 L70.1063265,55.755102 L70.1063265,48.0077551 L88.5232653,48.0077551 L88.5232653,72.6089796 Z" id="G" fill="#72CDF4"></path>
            </g>
        </g>
    </g>
</svg>