<?xml version="1.0" encoding="UTF-8"?>
<svg width="1168px" height="869px" viewBox="0 0 1168 869" version="1.1" xmlns="http://www.w3.org/2000/svg" xmlns:xlink="http://www.w3.org/1999/xlink">
    <!-- Generator: Sketch 43.2 (39069) - http://www.bohemiancoding.com/sketch -->
    <title>class is over</title>
    <desc>Created with Sketch.</desc>
    <defs>
        <path d="M140.00057,753.231802 L139.990369,753.231802 C109.067742,753.231802 84,728.161182 84,697.225992 L84,242.005809 L84,242.005809 C84,211.074655 109.074453,186 140.00057,186 L993.799418,186 C1024.72768,186 1049.79999,211.07062 1049.79999,242.005809 L1049.79999,697.225992 C1049.79999,728.157147 1024.72098,753.231802 993.8094,753.231802 L172.385146,753.231802" id="path-1"></path>
        <rect id="path-2" x="140" y="726" width="205" height="75" rx="18"></rect>
    </defs>
    <g id="Page-1" stroke="none" stroke-width="1" fill="none" fill-rule="evenodd">
        <g id="class-is-over">
            <path d="M55,234.000841 C55,193.68359 87.6854008,161 122.572841,161 L122.572841,161 L1061.00647,161 C1101.31968,161 1134,193.685704 1134,234.000841 L1134,754.558972 C1134,794.876223 1101.32159,827.559813 1061.00127,827.559813 L127.998734,827.559813 C87.6826464,827.559813 55,794.874109 55,754.558972 L55,234.000841 Z" id="Rectangle-15-Copy" fill="#CEF0FD"></path>
            <g id="Rectangle-15">
                <use fill="#FFFFFF" fill-rule="evenodd" xlink:href="#path-1"></use>
                <path stroke="#A2ADB2" stroke-width="10" d="M140.00057,748.231802 L139.990369,748.231802 C111.828026,748.231802 89,725.398617 89,697.225992 L89,242.005809 C89,213.836744 111.835211,191 140.00057,191 L993.799418,191 C1021.9676,191 1044.79999,213.833388 1044.79999,242.005809 L1044.79999,697.225992 C1044.79999,725.392014 1021.96326,748.231802 993.8094,748.231802 L172.385146,748.231802 L140.00057,748.231802 Z"></path>
            </g>
            <path d="M221.141335,139 L777.455453,139 M806.209353,139 L1029.00183,139 C1069.31761,139 1102,171.680369 1102,212.005987 L1102,726.994013 C1102,767.314106 1069.31942,800 1029.00708,800 L104.99292,800 C64.6800435,800 32,767.319631 32,726.994013 L32,212.005987 C32,171.685894 64.6826061,139 99.0092124,139 L240.797314,139 L806.209353,139 Z" id="Rectangle-15" stroke="#A2ADB2" stroke-width="10"></path>
            <path d="M907.5,471.5 L938.516125,440.483875" id="Line" stroke="#A2ADB2" stroke-width="4" stroke-linecap="square"></path>
            <path d="M889,516.869562 C889,516.869562 889.201766,523.920627 895.157071,523.920627 C901.112377,523.920627 923.989524,517.79414 923.989524,517.79414 C927.195369,516.961068 931.662145,514.362191 933.978409,511.976963 L981.575729,462.962518 C981.963565,462.563135 982.512774,461.856976 982.778668,461.385071 C982.778668,461.385071 990.500991,449.889812 980.320412,438.352682 C970.139834,426.815551 958.344057,427.830819 951.361678,431.480845 C944.379299,435.130871 901.774548,480.214806 901.774548,480.214806 C899.87665,482.212851 897.729003,485.987491 896.98026,488.636446 L889,516.869562 Z" id="Path" fill-opacity="0.477468297" fill="#71A1D5"></path>
            <path d="M921.5,480.5 L952.516125,449.483875" id="Line" stroke="#A2ADB2" stroke-width="4" stroke-linecap="square"></path>
            <path d="M676.495966,604 C676.495966,604 698.852341,553.503587 764.386404,569.314141 C829.920468,585.124696 880.740803,543.185434 880.740803,521.923199" id="Path-44" stroke="#CEF0FD" stroke-width="23" stroke-linecap="round" transform="translate(778.618384, 562.961600) scale(-1, -1) translate(-778.618384, -562.961600) "></path>
            <path d="M652.613704,603.597205 C652.613704,603.597205 677.5842,547.196268 750.781134,564.855544 C823.978067,582.51482 880.740803,535.671619 880.740803,511.923199" id="Path-44" stroke="#A2ADB2" stroke-width="2" stroke-linecap="round" transform="translate(766.677253, 557.760202) scale(-1, -1) translate(-766.677253, -557.760202) "></path>
            <path d="M929.883302,496.436842 C929.883302,485.391147 920.481282,476.436842 908.883302,476.436842 C897.285323,476.436842 887.883302,485.391147 887.883302,496.436842" id="Oval" stroke="#A2ADB2" stroke-width="5" transform="translate(908.883302, 486.436842) rotate(36.000000) translate(-908.883302, -486.436842) "></path>
            <path d="M964.766366,462.169263 C964.766366,450.131854 954.520205,440.373606 941.880925,440.373606 C929.241646,440.373606 918.995485,450.131854 918.995485,462.169263" id="Oval" stroke="#A2ADB2" stroke-width="5" transform="translate(941.880925, 451.271435) rotate(36.000000) translate(-941.880925, -451.271435) "></path>
            <path d="M902.393747,508.808875 C902.393747,503.435247 897.819751,499.07906 892.177442,499.07906 C886.535132,499.07906 881.961137,503.435247 881.961137,508.808875" id="Oval" stroke="#A2ADB2" stroke-width="5" transform="translate(892.177442, 503.943968) rotate(36.000000) translate(-892.177442, -503.943968) "></path>
            <path d="M879,508.869562 C879,508.869562 879.201766,515.920627 885.157071,515.920627 C891.112377,515.920627 913.989524,509.79414 913.989524,509.79414 C917.195369,508.961068 921.662145,506.362191 923.978409,503.976963 L971.575729,454.962518 C971.963565,454.563135 972.512774,453.856976 972.778668,453.385071 C972.778668,453.385071 980.500991,441.889812 970.320412,430.352682 C960.139834,418.815551 948.344057,419.830819 941.361678,423.480845 C934.379299,427.130871 891.774548,472.214806 891.774548,472.214806 C889.87665,474.212851 887.729003,477.987491 886.98026,480.636446 L879,508.869562 Z" id="Path" stroke="#A2ADB2" stroke-width="6"></path>
            <path d="M174.39009,567 L440.059998,567" id="Line-Copy" stroke="#A2ADB2" stroke-width="11" stroke-linecap="round" transform="translate(307.529999, 566.500000) scale(-1, 1) translate(-307.529999, -566.500000) "></path>
            <path d="M174.459803,607 L535.059998,607" id="Line-Copy" stroke="#A2ADB2" stroke-width="11" stroke-linecap="round" transform="translate(355.029999, 607.500000) scale(-1, 1) translate(-355.029999, -607.500000) "></path>
            <path d="M174.361732,647 L402.059998,647" id="Line-Copy" stroke="#A2ADB2" stroke-width="11" stroke-linecap="round" transform="translate(288.529999, 647.500000) scale(-1, 1) translate(-288.529999, -647.500000) "></path>
            <g id="Rectangle-16">
                <use fill="#FFFFFF" fill-rule="evenodd" xlink:href="#path-2"></use>
                <rect stroke="#92ABB5" stroke-width="8" x="144" y="730" width="197" height="67" rx="18"></rect>
            </g>
            <rect id="Rectangle-16" fill="#EEEEEE" x="155" y="741" width="205" height="75" rx="18"></rect>
            <rect id="Rectangle-16" stroke="#A2ADB2" stroke-width="8" x="144" y="730" width="197" height="67" rx="18"></rect>
            <circle id="Oval-10-Copy" stroke="#A2ADB2" stroke-width="5" cx="1097.5" cy="832.5" r="8.5"></circle>
            <circle id="Oval-10-Copy-3" fill="#A2ADB2" cx="1060.5" cy="851.5" r="8.5"></circle>
            <circle id="Oval-10-Copy" stroke="#A2ADB2" stroke-width="5" cx="169" cy="84" r="10"></circle>
            <circle id="Oval-10-Copy-3" fill="#A2ADB2" cx="120.5" cy="81.5" r="8.5"></circle>
            <path d="M224.281768,277.58011 C224.650094,275.959476 225.331487,274.762435 226.325967,273.98895 C227.320447,273.215466 228.443824,272.828729 229.696133,272.828729 C230.874776,272.828729 231.998153,273.19705 233.066298,273.933702 C234.134444,274.670354 234.852669,275.775315 235.220994,277.248619 C235.220994,287.635411 235.14733,297.745807 235,307.58011 C234.85267,317.414414 234.484349,327.561642 233.895028,338.022099 C233.821362,338.390425 233.78453,338.666666 233.78453,338.850829 L233.78453,339.348066 C233.268874,340.747705 232.532233,341.797418 231.574586,342.497238 C230.616938,343.197057 229.622473,343.546961 228.59116,343.546961 C226.896861,343.546961 225.276251,342.773488 223.729282,341.226519 L222.955801,339.900552 C220.451185,335.701636 217.891357,331.650112 215.276243,327.745856 C212.661129,323.841601 209.97239,320.047901 207.209945,316.364641 C204.4475,312.681381 201.629849,309.016593 198.756906,305.370166 C195.883964,301.723739 192.974232,298.05895 190.027624,294.375691 L190.027624,312.939227 C190.027624,316.769817 190.04604,320.747677 190.082873,324.872928 C190.119706,328.998179 190.138122,333.491688 190.138122,338.353591 C190.064456,340.268886 189.456728,341.668504 188.314917,342.552486 C187.173107,343.436469 185.976065,343.878453 184.723757,343.878453 C183.397783,343.878453 182.200742,343.454885 181.132597,342.607735 C180.064451,341.760585 179.419891,340.48988 179.198895,338.79558 C179.198895,333.933677 179.180479,329.016599 179.143646,324.044199 C179.106814,319.071798 179.088398,314.044224 179.088398,308.961326 L179.088398,279.016575 C179.456724,277.543271 180.119701,276.419893 181.077348,275.646409 C182.034996,274.872924 183.176789,274.486188 184.502762,274.486188 C185.60774,274.486188 187.007358,275.038669 188.701657,276.143646 L192.127072,280.121547 C197.799292,286.898745 203.250434,293.546929 208.480663,300.066298 C213.710892,306.585668 218.756882,313.528508 223.618785,320.895028 C223.83978,313.454843 224.005524,306.29101 224.116022,299.403315 C224.22652,292.515619 224.281768,285.278123 224.281768,277.690608 L224.281768,277.58011 Z M267.375691,293.823204 C270.469629,293.823204 273.213616,294.486181 275.607735,295.812155 C278.001854,297.138128 280.027616,298.88765 281.685083,301.060773 C283.34255,303.233897 284.594839,305.701644 285.441989,308.464088 C286.289139,311.226533 286.712707,314.044185 286.712707,316.917127 C286.712707,318.169435 286.639043,319.329645 286.491713,320.39779 C286.344382,321.465935 286.160222,322.552481 285.939227,323.657459 C285.128909,326.677731 283.931868,329.513799 282.348066,332.165746 C280.764265,334.817693 278.904246,337.119696 276.767956,339.071823 C274.631665,341.023951 272.255998,342.552481 269.640884,343.657459 C267.02577,344.762436 264.281782,345.314917 261.40884,345.314917 C258.388567,345.314917 255.64458,344.65194 253.176796,343.325967 C250.709012,341.999993 248.628001,340.287303 246.933702,338.187845 C245.239402,336.088387 243.931865,333.731136 243.01105,331.116022 C242.090235,328.500908 241.629834,325.867417 241.629834,323.21547 C241.629834,319.53221 242.311227,315.941086 243.674033,312.441989 C245.036839,308.942892 246.878441,305.812169 249.198895,303.049724 C251.519349,300.287279 254.24492,298.05894 257.375691,296.364641 C260.506461,294.670341 263.839761,293.823204 267.375691,293.823204 Z M253.121547,317.58011 C252.679556,319.27441 252.458564,321.152844 252.458564,323.21547 C252.458564,325.278095 252.75322,327.211777 253.342541,329.016575 C253.931863,330.821372 254.907912,332.349902 256.270718,333.60221 C257.633524,334.854518 259.45671,335.480663 261.740331,335.480663 C263.950287,335.480663 265.920802,334.836102 267.651934,333.546961 C269.383066,332.25782 270.856348,330.674043 272.071823,328.79558 C273.287299,326.917118 274.226516,324.891355 274.889503,322.718232 C275.55249,320.545109 275.883978,318.574594 275.883978,316.80663 C275.883978,315.185996 275.699818,313.583802 275.331492,312 C274.963166,310.416198 274.392269,308.998165 273.618785,307.745856 C272.8453,306.493548 271.906083,305.480667 270.801105,304.707182 C269.696127,303.933698 268.443838,303.546961 267.044199,303.546961 C265.276234,303.546961 263.618792,304.007362 262.071823,304.928177 C260.524854,305.848992 259.143652,306.990785 257.928177,308.353591 C256.712701,309.716397 255.69982,311.226511 254.889503,312.883978 C254.079186,314.541445 253.489873,316.106807 253.121547,317.58011 Z M375.662983,333.823204 C376.620631,335.149178 377.099448,336.364635 377.099448,337.469613 C377.099448,338.795587 376.602215,339.882132 375.607735,340.729282 C374.613255,341.576431 373.416213,342 372.016575,342 C370.322275,342 368.867409,341.373855 367.651934,340.121547 C366.436458,338.869239 365.423577,337.395957 364.61326,335.701657 C362.77163,337.395957 360.598539,338.869239 358.093923,340.121547 C355.589306,341.373855 353.047895,342 350.469613,342 C348.480653,342 346.510139,341.650096 344.558011,340.950276 C342.605883,340.250457 340.801113,339.292824 339.143646,338.077348 C337.48618,336.861872 336.04973,335.443839 334.834254,333.823204 C333.618778,332.20257 332.679561,330.471464 332.016575,328.629834 C331.427253,326.714539 331.040517,324.615113 330.856354,322.331492 C330.672191,320.047871 330.58011,317.653788 330.58011,315.149171 L330.58011,310.39779 C330.58011,308.850821 330.616943,307.340707 330.690608,305.867403 C330.764273,304.615095 330.819521,303.399638 330.856354,302.220994 C330.893186,301.042351 330.911602,299.93739 330.911602,298.906077 C331.279928,297.285443 331.961321,296.106818 332.955801,295.370166 C333.950281,294.633514 335.110491,294.265193 336.436464,294.265193 C337.541442,294.265193 338.627987,294.615098 339.696133,295.314917 C340.764278,296.014736 341.482503,297.101282 341.850829,298.574586 L341.850829,303.546961 C341.850829,305.167596 341.813997,306.788206 341.740331,308.40884 C341.666666,310.103139 341.611418,311.760581 341.574586,313.381215 C341.537753,315.00185 341.519337,316.732956 341.519337,318.574586 C341.519337,322.552506 342.29281,325.793726 343.839779,328.298343 C345.386748,330.802959 347.486175,332.055249 350.138122,332.055249 C352.274412,332.055249 354.263343,331.226528 356.104972,329.569061 C357.946602,327.911594 359.71454,326.014744 361.40884,323.878453 C360.966849,320.342524 360.745856,316.732983 360.745856,313.049724 C360.745856,310.913433 360.764272,308.740343 360.801105,306.530387 C360.837938,304.320431 361.05893,302.313085 361.464088,300.508287 C361.869247,298.70349 362.495392,297.230208 363.342541,296.088398 C364.189691,294.946587 365.460397,294.375691 367.154696,294.375691 C368.48067,294.375691 369.677711,294.817675 370.745856,295.701657 C371.814002,296.58564 372.348066,297.911593 372.348066,299.679558 C372.348066,301.226527 372.23757,302.994465 372.016575,304.983425 C371.869244,306.235734 371.758748,307.561687 371.685083,308.961326 C371.611418,310.360965 371.574586,311.797414 371.574586,313.270718 C371.574586,315.259678 371.629834,317.267025 371.740331,319.292818 C371.850829,321.31861 372.071822,323.252293 372.403315,325.093923 C372.734808,326.935552 373.158377,328.61141 373.674033,330.121547 C374.18969,331.631683 374.852666,332.865557 375.662983,333.823204 Z M386.381215,297.58011 C386.749541,296.033141 387.430934,294.872932 388.425414,294.099448 C389.419894,293.325963 390.543272,292.939227 391.79558,292.939227 C392.900558,292.939227 393.968687,293.270715 395,293.933702 C396.031313,294.596688 396.767954,295.554322 397.209945,296.80663 C398.830579,295.775317 400.598517,295.001844 402.513812,294.486188 C404.429107,293.970531 406.344373,293.712707 408.259669,293.712707 C411.206276,293.712707 413.950264,294.338852 416.491713,295.59116 C419.033162,296.843469 421.243085,298.537743 423.121547,300.674033 C425.000009,302.810324 426.473291,305.314903 427.541436,308.187845 C428.609582,311.060788 429.143646,314.081015 429.143646,317.248619 C429.143646,320.784548 428.57275,324.025768 427.430939,326.972376 C426.289129,329.918983 424.576439,332.460394 422.292818,334.596685 C420.009197,336.732976 417.209961,338.408834 413.895028,339.624309 C410.580094,340.839785 406.712729,341.447514 402.292818,341.447514 L399.751381,341.447514 C398.941064,341.447514 398.130759,341.37385 397.320442,341.226519 L397.320442,363.546961 C397.246777,365.388591 396.639048,366.751377 395.497238,367.635359 C394.355427,368.519341 393.121554,368.961326 391.79558,368.961326 C390.543272,368.961326 389.383062,368.556173 388.314917,367.745856 C387.246772,366.935539 386.602211,365.68325 386.381215,363.98895 L386.381215,297.58011 Z M397.320442,311.060773 L397.320442,331.392265 C399.014741,331.760591 400.672183,331.944751 402.292818,331.944751 C406.933725,331.944751 410.80109,330.692462 413.895028,328.187845 C416.988966,325.683229 418.535912,322.221017 418.535912,317.801105 C418.535912,316.106806 418.296503,314.394115 417.81768,312.662983 C417.338856,310.931851 416.657463,309.36649 415.773481,307.966851 C414.889498,306.567212 413.839785,305.425419 412.624309,304.541436 C411.408834,303.657454 410.101296,303.21547 408.701657,303.21547 C406.418036,303.21547 404.392274,303.970527 402.624309,305.480663 C400.856345,306.990799 399.346231,308.556161 398.093923,310.176796 L397.320442,311.060773 Z M467.154696,329.513812 C467.744018,328.924491 468.406994,328.519338 469.143646,328.298343 C469.880298,328.077347 470.616939,327.966851 471.353591,327.966851 C472.826895,327.966851 474.042352,328.427251 475,329.348066 C475.957648,330.268881 476.436464,331.355427 476.436464,332.607735 C476.436464,333.860043 475.883983,335.149165 474.779006,336.475138 C472.71638,338.758759 470.322297,340.453033 467.596685,341.558011 C464.871073,342.662989 462.035006,343.21547 459.088398,343.21547 C457.173103,343.21547 455.276252,342.957645 453.39779,342.441989 C451.519328,341.926333 449.75139,341.134444 448.093923,340.066298 C446.436456,338.998153 444.944758,337.690615 443.618785,336.143646 C442.292811,334.596677 441.261514,332.791907 440.524862,330.729282 L440.524862,330.839779 C438.683232,326.640863 437.946591,322.368346 438.314917,318.022099 C438.535913,314.928161 439.217306,311.815854 440.359116,308.685083 C441.500927,305.554312 443.066288,302.699829 445.055249,300.121547 C447.044209,297.543265 449.419876,295.443839 452.18232,293.823204 C454.944765,292.20257 457.983409,291.392265 461.298343,291.392265 C462.329655,291.392265 463.32412,291.447513 464.281768,291.558011 C465.239415,291.668509 466.233881,291.907917 467.265193,292.276243 C469.327819,293.012895 471.187837,293.860032 472.845304,294.81768 C474.502771,295.775327 476.178629,297.101281 477.872928,298.79558 C478.60958,300.047888 478.977901,301.116018 478.977901,302 C478.977901,302.957648 478.756908,303.804785 478.314917,304.541436 C477.872926,305.278088 477.265197,305.830569 476.491713,306.198895 C475.718228,306.567221 474.797427,306.732965 473.729282,306.696133 C472.661136,306.6593 471.537759,306.346228 470.359116,305.756906 C468.812147,304.136272 467.320449,302.976062 465.883978,302.276243 C464.447507,301.576424 463.066305,301.226519 461.740331,301.226519 C459.972367,301.226519 458.314925,301.760584 456.767956,302.828729 C455.220987,303.896875 453.895033,305.314908 452.790055,307.082873 C451.685077,308.850838 450.801108,310.839768 450.138122,313.049724 C449.475135,315.25968 449.143646,317.506434 449.143646,319.790055 C449.143646,321.042364 449.235727,322.294653 449.41989,323.546961 C449.604052,324.79927 449.953957,325.977895 450.469613,327.082873 C451.427261,329.292829 452.67955,330.913439 454.226519,331.944751 C455.773488,332.976064 457.394098,333.491713 459.088398,333.491713 C460.340706,333.491713 461.66666,333.160224 463.066298,332.497238 C464.465937,331.834251 465.791891,330.839786 467.044199,329.513812 L467.154696,329.513812 Z M507.707182,293.823204 C510.80112,293.823204 513.545108,294.486181 515.939227,295.812155 C518.333345,297.138128 520.359108,298.88765 522.016575,301.060773 C523.674041,303.233897 524.926331,305.701644 525.773481,308.464088 C526.62063,311.226533 527.044199,314.044185 527.044199,316.917127 C527.044199,318.169435 526.970535,319.329645 526.823204,320.39779 C526.675874,321.465935 526.491714,322.552481 526.270718,323.657459 C525.460401,326.677731 524.26336,329.513799 522.679558,332.165746 C521.095756,334.817693 519.235738,337.119696 517.099448,339.071823 C514.963157,341.023951 512.58749,342.552481 509.972376,343.657459 C507.357261,344.762436 504.613274,345.314917 501.740331,345.314917 C498.720059,345.314917 495.976071,344.65194 493.508287,343.325967 C491.040503,341.999993 488.959493,340.287303 487.265193,338.187845 C485.570894,336.088387 484.263356,333.731136 483.342541,331.116022 C482.421727,328.500908 481.961326,325.867417 481.961326,323.21547 C481.961326,319.53221 482.642719,315.941086 484.005525,312.441989 C485.368331,308.942892 487.209933,305.812169 489.530387,303.049724 C491.85084,300.287279 494.576412,298.05894 497.707182,296.364641 C500.837953,294.670341 504.171253,293.823204 507.707182,293.823204 Z M493.453039,317.58011 C493.011048,319.27441 492.790055,321.152844 492.790055,323.21547 C492.790055,325.278095 493.084712,327.211777 493.674033,329.016575 C494.263355,330.821372 495.239404,332.349902 496.60221,333.60221 C497.965016,334.854518 499.788202,335.480663 502.071823,335.480663 C504.281779,335.480663 506.252293,334.836102 507.983425,333.546961 C509.714557,332.25782 511.187839,330.674043 512.403315,328.79558 C513.618791,326.917118 514.558008,324.891355 515.220994,322.718232 C515.883981,320.545109 516.21547,318.574594 516.21547,316.80663 C516.21547,315.185996 516.031309,313.583802 515.662983,312 C515.294657,310.416198 514.723761,308.998165 513.950276,307.745856 C513.176792,306.493548 512.237575,305.480667 511.132597,304.707182 C510.027619,303.933698 508.775329,303.546961 507.375691,303.546961 C505.607726,303.546961 503.950284,304.007362 502.403315,304.928177 C500.856346,305.848992 499.475144,306.990785 498.259669,308.353591 C497.044193,309.716397 496.031312,311.226511 495.220994,312.883978 C494.410677,314.541445 493.821365,316.106807 493.453039,317.58011 Z M562.955801,338.243094 L562.955801,308.519337 C562.145484,306.530377 560.930027,304.965015 559.309392,303.823204 C557.688758,302.681394 555.883988,302.220993 553.895028,302.441989 C553.158376,302.515654 552.532231,302.662982 552.016575,302.883978 C551.500918,303.104973 550.98527,303.436462 550.469613,303.878453 C549.953957,304.320444 549.38306,304.909757 548.756906,305.646409 C548.130752,306.383061 547.375695,307.303862 546.491713,308.40884 L546.491713,338.353591 C546.418048,340.195221 545.810319,341.558007 544.668508,342.441989 C543.526698,343.325971 542.292824,343.767956 540.966851,343.767956 C539.714543,343.767956 538.554333,343.362803 537.486188,342.552486 C536.418043,341.742169 535.773482,340.48988 535.552486,338.79558 L535.552486,296.475138 C536.436469,293.454865 538.241239,291.944751 540.966851,291.944751 C541.998164,291.944751 542.955797,292.18416 543.839779,292.662983 C544.723761,293.141807 545.42357,293.933696 545.939227,295.038674 C547.044204,294.375687 548.351742,293.786375 549.861878,293.270718 C551.372015,292.755062 552.974209,292.497238 554.668508,292.497238 C557.320455,292.497238 559.990778,293.08655 562.679558,294.265193 C565.368338,295.443836 567.596676,296.990782 569.364641,298.906077 C570.101293,298.169425 570.930014,297.414369 571.850829,296.640884 C572.771644,295.867399 573.729277,295.167591 574.723757,294.541436 C575.718237,293.915282 576.749534,293.399634 577.81768,292.994475 C578.885825,292.589317 579.97237,292.38674 581.077348,292.38674 C583.434634,292.38674 585.755053,292.791893 588.038674,293.60221 C590.322295,294.412527 592.38489,295.499072 594.226519,296.861878 C596.068149,298.224685 597.541431,299.808462 598.646409,301.61326 C599.751387,303.418057 600.303867,305.351739 600.303867,307.414365 L600.303867,337.911602 C600.230202,339.753232 599.622473,341.116018 598.480663,342 C597.338852,342.883982 596.141811,343.325967 594.889503,343.325967 C593.563529,343.325967 592.384904,342.920814 591.353591,342.110497 C590.322278,341.30018 589.696134,340.047891 589.475138,338.353591 L589.475138,308.519337 C588.664821,306.235716 587.523028,304.633522 586.049724,303.712707 C584.57642,302.791892 583.13997,302.331492 581.740331,302.331492 C580.046032,302.331492 578.535918,302.773476 577.209945,303.657459 C575.883971,304.541441 574.705346,306.198883 573.674033,308.629834 L573.78453,337.801105 C573.710865,339.642735 573.121552,341.00552 572.016575,341.889503 C570.911597,342.773485 569.696139,343.21547 568.370166,343.21547 C567.044192,343.21547 565.865567,342.810317 564.834254,342 C563.802941,341.189683 563.176797,339.937393 562.955801,338.243094 Z M623.839779,338.132597 C623.766114,339.974227 623.176801,341.337012 622.071823,342.220994 C620.966845,343.104977 619.751388,343.546961 618.425414,343.546961 C617.099441,343.546961 615.920815,343.141809 614.889503,342.331492 C613.85819,341.521175 613.232045,340.268885 613.01105,338.574586 L612.679558,296.585635 C613.047884,295.038666 613.710861,293.878457 614.668508,293.104972 C615.626156,292.331488 616.767949,291.944751 618.093923,291.944751 C619.272566,291.944751 620.377527,292.294656 621.40884,292.994475 C622.440152,293.694294 623.139961,294.78084 623.508287,296.254144 L623.839779,338.132597 Z M611.906077,279.016575 C611.906077,277.322275 612.513806,275.867409 613.729282,274.651934 C614.944757,273.436458 616.399623,272.828729 618.093923,272.828729 C619.861887,272.828729 621.353585,273.436458 622.569061,274.651934 C623.784536,275.867409 624.392265,277.322275 624.392265,279.016575 C624.392265,280.710874 623.784536,282.147324 622.569061,283.325967 C621.353585,284.50461 619.861887,285.093923 618.093923,285.093923 C616.399623,285.093923 614.944757,284.50461 613.729282,283.325967 C612.513806,282.147324 611.906077,280.710874 611.906077,279.016575 Z M677.651934,338.353591 C677.578269,340.195221 676.97054,341.558007 675.828729,342.441989 C674.686919,343.325971 673.489877,343.767956 672.237569,343.767956 C670.911596,343.767956 669.714554,343.362803 668.646409,342.552486 C667.578264,341.742169 666.933703,340.48988 666.712707,338.79558 L666.712707,336.088398 C666.712707,335.093918 666.694291,333.767964 666.657459,332.110497 C666.620626,330.45303 666.60221,328.316772 666.60221,325.701657 L666.60221,315.480663 C666.60221,314.523015 666.639042,313.307558 666.712707,311.834254 C666.786372,310.36095 666.712708,308.906085 666.491713,307.469613 C666.270717,306.033142 665.847149,304.799269 665.220994,303.767956 C664.59484,302.736643 663.618791,302.220994 662.292818,302.220994 C660.082862,302.220994 657.928187,302.847139 655.828729,304.099448 C653.729271,305.351756 651.832421,307.193358 650.138122,309.624309 C649.5488,310.508292 649.088399,311.337013 648.756906,312.110497 C648.425413,312.883982 648.186004,314.007359 648.038674,315.480663 L648.038674,326.585635 C648.038674,330.232062 648.075506,333.933683 648.149171,337.690608 C648.075506,339.532238 647.486193,340.895023 646.381215,341.779006 C645.276238,342.662988 644.06078,343.104972 642.734807,343.104972 C641.482498,343.104972 640.322289,342.69982 639.254144,341.889503 C638.185998,341.079186 637.541438,339.826896 637.320442,338.132597 L637.320442,318.243094 C637.320442,315.001825 637.302026,311.74219 637.265193,308.464088 C637.228361,305.185987 637.209945,301.779023 637.209945,298.243094 C637.578271,296.62246 638.259664,295.443834 639.254144,294.707182 C640.248624,293.97053 641.372001,293.60221 642.624309,293.60221 C643.655622,293.60221 644.686919,293.915282 645.718232,294.541436 C646.749545,295.167591 647.449354,296.106808 647.81768,297.359116 C649.95397,295.885812 652.237557,294.725603 654.668508,293.878453 C657.09946,293.031303 659.604039,292.607735 662.18232,292.607735 C664.981598,292.607735 667.651921,293.270712 670.19337,294.596685 C672.734819,295.922659 674.778998,297.948421 676.325967,300.674033 C677.062619,302.000007 677.541435,303.399624 677.762431,304.872928 C677.983427,306.346232 678.093923,307.856346 678.093923,309.403315 C678.093923,310.950284 678.020259,312.478814 677.872928,313.98895 C677.725598,315.499087 677.651934,316.91712 677.651934,318.243094 L677.651934,338.353591 Z M690.248619,359.127072 C690.248619,357.580103 690.98526,356.327813 692.458564,355.370166 C693.931867,354.412518 695.847134,354.302022 698.20442,355.038674 C702.477001,357.837951 706.565358,359.237569 710.469613,359.237569 C714.668529,359.237569 717.670341,358.26152 719.475138,356.309392 C721.279935,354.357265 722.18232,351.502781 722.18232,347.745856 L722.18232,341.779006 L717.762431,343.21547 C715.994466,343.657461 714.521185,343.970533 713.342541,344.154696 C712.163898,344.338859 710.985273,344.430939 709.80663,344.430939 C706.491696,344.430939 703.453052,343.712714 700.690608,342.276243 C697.928163,340.839772 695.589328,338.961338 693.674033,336.640884 C691.758738,334.32043 690.26704,331.705355 689.198895,328.79558 C688.13075,325.885805 687.596685,322.920825 687.596685,319.900552 C687.596685,318.206253 687.744013,316.475147 688.038674,314.707182 C688.333335,312.939218 688.812151,311.208112 689.475138,309.513812 C690.285455,307.451187 691.408833,305.499088 692.845304,303.657459 C694.281775,301.815829 695.939217,300.232051 697.81768,298.906077 C699.696142,297.580104 701.703488,296.530391 703.839779,295.756906 C705.97607,294.983422 708.185992,294.596685 710.469613,294.596685 C712.97423,294.596685 715.239401,295.020254 717.265193,295.867403 C719.290986,296.714553 721.261501,297.764266 723.176796,299.016575 C724.208108,297.543271 725.644558,296.80663 727.486188,296.80663 C728.738496,296.80663 729.88029,297.156534 730.911602,297.856354 C731.942915,298.556173 732.642724,299.642718 733.01105,301.116022 L733.01105,347.414365 C733.01105,351.31862 732.403321,354.688752 731.187845,357.524862 C729.97237,360.360972 727.633535,362.920799 724.171271,365.20442 C722.771632,366.088402 721.224686,366.880291 719.530387,367.58011 C717.836087,368.27993 716.141813,368.703498 714.447514,368.850829 C712.753214,369.071824 710.59854,369.09024 707.983425,368.906077 C705.368311,368.721914 702.771652,368.243098 700.19337,367.469613 C697.615088,366.696129 695.368334,365.646415 693.453039,364.320442 C691.537744,362.994469 690.469614,361.263362 690.248619,359.127072 Z M722.18232,330.066298 C722.18232,326.751365 722.163904,323.528561 722.127072,320.39779 C722.090239,317.267019 722.071823,314.044215 722.071823,310.729282 C720.598519,309.403308 719.033157,308.077355 717.375691,306.751381 C715.718224,305.425408 713.93187,304.688767 712.016575,304.541436 C708.996302,304.320441 706.583803,304.762425 704.779006,305.867403 C702.974208,306.972381 701.593007,308.353583 700.635359,310.01105 C699.677712,311.668517 699.069983,313.381207 698.812155,315.149171 C698.554327,316.917136 698.425414,318.353586 698.425414,319.458564 C698.425414,321.81585 698.756903,323.933692 699.41989,325.812155 C700.082876,327.690617 700.985261,329.274395 702.127072,330.563536 C703.268882,331.852677 704.613252,332.847142 706.160221,333.546961 C707.70719,334.246781 709.3278,334.596685 711.022099,334.596685 C714.410698,334.596685 718.130735,333.086571 722.18232,330.066298 Z M257.541436,438.40884 C258.72008,437.966849 259.806625,437.782688 260.801105,437.856354 C261.795585,437.930019 262.642722,438.187843 263.342541,438.629834 C264.042361,439.071825 264.594841,439.642722 265,440.342541 C265.405159,441.042361 265.607735,441.797418 265.607735,442.607735 C265.607735,443.418052 265.34991,444.209941 264.834254,444.983425 C264.318598,445.75691 263.508293,446.475135 262.403315,447.138122 C259.309377,448.979751 255.976077,450.545113 252.403315,451.834254 C248.830553,453.123395 245.239429,453.767956 241.629834,453.767956 C239.493544,453.767956 237.320453,453.454883 235.110497,452.828729 C232.900541,452.202575 230.837947,451.226526 228.922652,449.900552 C225.828714,447.616931 223.416215,444.61512 221.685083,440.895028 C219.953951,437.174935 219.088398,433.362819 219.088398,429.458564 C219.088398,425.627973 219.843455,421.944769 221.353591,418.40884 C222.863728,414.87291 225.276227,412.000011 228.59116,409.790055 C231.243107,407.948425 234.116007,406.475144 237.209945,405.370166 C240.303883,404.265188 243.508271,403.712707 246.823204,403.712707 C248.591169,403.712707 250.322275,403.896867 252.016575,404.265193 C253.637209,404.633519 255.147323,405.27808 256.546961,406.198895 C257.9466,407.11971 259.162057,408.224671 260.19337,409.513812 C261.224683,410.802953 262.034988,412.220987 262.624309,413.767956 C263.213631,415.314925 263.508287,416.861871 263.508287,418.40884 C263.508287,419.440152 263.397791,420.434618 263.176796,421.392265 C262.9558,422.349913 262.550648,423.270714 261.961326,424.154696 C260.856348,425.922661 259.346234,427.451191 257.430939,428.740331 C255.515644,430.029472 253.416218,431.15285 251.132597,432.110497 C248.848976,433.068145 246.491725,433.87845 244.060773,434.541436 C241.629822,435.204423 239.346235,435.793736 237.209945,436.309392 C234.926324,436.898714 233.471458,437.267034 232.845304,437.414365 C232.21915,437.561695 231.832413,437.635359 231.685083,437.635359 C232.716396,439.77165 234.189677,441.465924 236.104972,442.718232 C238.020267,443.97054 240.377518,444.486189 243.176796,444.265193 C245.534082,444.117863 247.983413,443.43647 250.524862,442.220994 C253.066311,441.005519 255.405146,439.734813 257.541436,438.40884 Z M237.209945,416.198895 C234.778993,417.451203 232.974223,419.127061 231.79558,421.226519 C230.616937,423.325977 229.95396,425.664812 229.80663,428.243094 L229.972376,428.187845 C230.082873,428.151013 230.414362,428.058933 230.966851,427.911602 C231.51934,427.764272 232.348061,427.524864 233.453039,427.19337 C234.558017,426.861877 236.141794,426.401476 238.20442,425.812155 C238.941072,425.591159 240.046033,425.278087 241.519337,424.872928 C242.992641,424.46777 244.484339,423.988953 245.994475,423.436464 C247.504612,422.883975 248.904229,422.239414 250.19337,421.502762 C251.482511,420.76611 252.348064,419.955806 252.790055,419.071823 C252.937386,416.935533 252.458569,415.462251 251.353591,414.651934 C250.248613,413.841617 248.92266,413.436464 247.375691,413.436464 C245.681391,413.436464 243.876621,413.749536 241.961326,414.375691 C240.046031,415.001845 238.462253,415.609573 237.209945,416.198895 Z M300.414365,405.812155 C301.003686,404.780842 301.795575,404.025785 302.790055,403.546961 C303.784535,403.068138 304.760585,402.828729 305.718232,402.828729 C307.117871,402.828729 308.351744,403.325962 309.41989,404.320442 C310.488035,405.314922 310.948435,406.769788 310.801105,408.685083 C309.990788,411.779021 309.069987,414.780833 308.038674,417.690608 C307.007361,420.600383 305.976064,423.52853 304.944751,426.475138 L305.055249,426.475138 L303.287293,431.337017 L301.40884,436.309392 C300.451192,439.035004 299.493559,441.723744 298.535912,444.375691 C297.578264,447.027638 296.583799,449.495385 295.552486,451.779006 C294.226513,453.325975 292.679567,454.099448 290.911602,454.099448 C288.554316,454.099448 286.896874,453.104982 285.939227,451.116022 C283.360945,444.191494 280.672206,437.322318 277.872928,430.508287 C275.073651,423.694257 272.053423,417.046073 268.812155,410.563536 C268.370164,409.532223 268.167587,408.556174 268.20442,407.635359 C268.241252,406.714544 268.480661,405.904239 268.922652,405.20442 C269.364643,404.504601 269.953956,403.95212 270.690608,403.546961 C271.42726,403.141803 272.237565,402.939227 273.121547,402.939227 C275.036842,402.939227 276.767948,403.933692 278.314917,405.922652 C280.451208,410.342564 282.56905,414.928153 284.668508,419.679558 C286.767966,424.430963 288.848977,429.421705 290.911602,434.651934 C291.132598,434.136277 291.335174,433.602213 291.519337,433.049724 C291.7035,432.497235 291.906076,431.852674 292.127072,431.116022 C292.348067,430.37937 292.624308,429.495401 292.955801,428.464088 C293.287294,427.432776 293.710863,426.180486 294.226519,424.707182 C295.331497,421.613244 296.399627,418.519352 297.430939,415.425414 C298.462252,412.331476 299.456717,409.127088 300.414365,405.812155 Z M355.331492,438.40884 C356.510135,437.966849 357.59668,437.782688 358.59116,437.856354 C359.58564,437.930019 360.432777,438.187843 361.132597,438.629834 C361.832416,439.071825 362.384897,439.642722 362.790055,440.342541 C363.195214,441.042361 363.39779,441.797418 363.39779,442.607735 C363.39779,443.418052 363.139966,444.209941 362.624309,444.983425 C362.108653,445.75691 361.298348,446.475135 360.19337,447.138122 C357.099432,448.979751 353.766132,450.545113 350.19337,451.834254 C346.620608,453.123395 343.029484,453.767956 339.41989,453.767956 C337.283599,453.767956 335.110508,453.454883 332.900552,452.828729 C330.690597,452.202575 328.628002,451.226526 326.712707,449.900552 C323.618769,447.616931 321.20627,444.61512 319.475138,440.895028 C317.744006,437.174935 316.878453,433.362819 316.878453,429.458564 C316.878453,425.627973 317.63351,421.944769 319.143646,418.40884 C320.653783,414.87291 323.066282,412.000011 326.381215,409.790055 C329.033162,407.948425 331.906062,406.475144 335,405.370166 C338.093938,404.265188 341.298326,403.712707 344.61326,403.712707 C346.381224,403.712707 348.11233,403.896867 349.80663,404.265193 C351.427264,404.633519 352.937378,405.27808 354.337017,406.198895 C355.736655,407.11971 356.952113,408.224671 357.983425,409.513812 C359.014738,410.802953 359.825043,412.220987 360.414365,413.767956 C361.003686,415.314925 361.298343,416.861871 361.298343,418.40884 C361.298343,419.440152 361.187846,420.434618 360.966851,421.392265 C360.745855,422.349913 360.340703,423.270714 359.751381,424.154696 C358.646403,425.922661 357.13629,427.451191 355.220994,428.740331 C353.305699,430.029472 351.206273,431.15285 348.922652,432.110497 C346.639031,433.068145 344.28178,433.87845 341.850829,434.541436 C339.419877,435.204423 337.136291,435.793736 335,436.309392 C332.716379,436.898714 331.261513,437.267034 330.635359,437.414365 C330.009205,437.561695 329.622469,437.635359 329.475138,437.635359 C330.506451,439.77165 331.979733,441.465924 333.895028,442.718232 C335.810323,443.97054 338.167573,444.486189 340.966851,444.265193 C343.324137,444.117863 345.773468,443.43647 348.314917,442.220994 C350.856366,441.005519 353.195201,439.734813 355.331492,438.40884 Z M335,416.198895 C332.569049,417.451203 330.764278,419.127061 329.585635,421.226519 C328.406992,423.325977 327.744015,425.664812 327.596685,428.243094 L327.762431,428.187845 C327.872929,428.151013 328.204417,428.058933 328.756906,427.911602 C329.309395,427.764272 330.138116,427.524864 331.243094,427.19337 C332.348072,426.861877 333.93185,426.401476 335.994475,425.812155 C336.731127,425.591159 337.836088,425.278087 339.309392,424.872928 C340.782696,424.46777 342.274394,423.988953 343.78453,423.436464 C345.294667,422.883975 346.694285,422.239414 347.983425,421.502762 C349.272566,420.76611 350.138119,419.955806 350.58011,419.071823 C350.727441,416.935533 350.248624,415.462251 349.143646,414.651934 C348.038669,413.841617 346.712715,413.436464 345.165746,413.436464 C343.471446,413.436464 341.666676,413.749536 339.751381,414.375691 C337.836086,415.001845 336.252308,415.609573 335,416.198895 Z M411.574586,448.353591 C411.50092,450.195221 410.893192,451.558007 409.751381,452.441989 C408.609571,453.325971 407.412529,453.767956 406.160221,453.767956 C404.834248,453.767956 403.637206,453.362803 402.569061,452.552486 C401.500915,451.742169 400.856355,450.48988 400.635359,448.79558 L400.635359,446.088398 C400.635359,445.093918 400.616943,443.767964 400.58011,442.110497 C400.543278,440.45303 400.524862,438.316772 400.524862,435.701657 L400.524862,425.480663 C400.524862,424.523015 400.561694,423.307558 400.635359,421.834254 C400.709024,420.36095 400.63536,418.906085 400.414365,417.469613 C400.193369,416.033142 399.769801,414.799269 399.143646,413.767956 C398.517492,412.736643 397.541443,412.220994 396.21547,412.220994 C394.005514,412.220994 391.850839,412.847139 389.751381,414.099448 C387.651923,415.351756 385.755073,417.193358 384.060773,419.624309 C383.471452,420.508292 383.011051,421.337013 382.679558,422.110497 C382.348065,422.883982 382.108656,424.007359 381.961326,425.480663 L381.961326,436.585635 C381.961326,440.232062 381.998158,443.933683 382.071823,447.690608 C381.998158,449.532238 381.408845,450.895023 380.303867,451.779006 C379.19889,452.662988 377.983432,453.104972 376.657459,453.104972 C375.40515,453.104972 374.244941,452.69982 373.176796,451.889503 C372.10865,451.079186 371.46409,449.826896 371.243094,448.132597 L371.243094,428.243094 C371.243094,425.001825 371.224678,421.74219 371.187845,418.464088 C371.151013,415.185987 371.132597,411.779023 371.132597,408.243094 C371.500923,406.62246 372.182315,405.443834 373.176796,404.707182 C374.171276,403.97053 375.294653,403.60221 376.546961,403.60221 C377.578274,403.60221 378.609571,403.915282 379.640884,404.541436 C380.672197,405.167591 381.372006,406.106808 381.740331,407.359116 C383.876622,405.885812 386.160209,404.725603 388.59116,403.878453 C391.022112,403.031303 393.526691,402.607735 396.104972,402.607735 C398.90425,402.607735 401.574573,403.270712 404.116022,404.596685 C406.657471,405.922659 408.70165,407.948421 410.248619,410.674033 C410.985271,412.000007 411.464087,413.399624 411.685083,414.872928 C411.906078,416.346232 412.016575,417.856346 412.016575,419.403315 C412.016575,420.950284 411.94291,422.478814 411.79558,423.98895 C411.64825,425.499087 411.574586,426.91712 411.574586,428.243094 L411.574586,448.353591 Z M425.38674,413.767956 C423.54511,413.473295 422.163909,412.883982 421.243094,412 C420.322279,411.116018 419.861878,410.08472 419.861878,408.906077 C419.861878,407.727434 420.359111,406.622473 421.353591,405.59116 C422.348071,404.559848 423.839769,404.044199 425.828729,404.044199 L430.911602,404.044199 L430.911602,387.138122 C431.279928,385.591152 431.961321,384.430943 432.955801,383.657459 C433.950281,382.883974 435.073659,382.497238 436.325967,382.497238 C437.50461,382.497238 438.609571,382.847142 439.640884,383.546961 C440.672197,384.246781 441.372006,385.333326 441.740331,386.80663 L441.740331,404.044199 L451.464088,404.044199 C453.084723,404.48619 454.281764,405.149167 455.055249,406.033149 C455.828733,406.917131 456.21547,407.874765 456.21547,408.906077 C456.21547,411.263364 454.521196,412.883973 451.132597,413.767956 L441.740331,413.767956 L441.740331,434.099448 C441.740331,436.383069 441.758748,438.666655 441.79558,440.950276 C441.832413,443.233897 441.850829,445.517484 441.850829,447.801105 C441.850829,449.642735 441.261516,451.00552 440.082873,451.889503 C438.90423,452.773485 437.688772,453.21547 436.436464,453.21547 C435.184156,453.21547 434.023946,452.810317 432.955801,452 C431.887656,451.189683 431.243095,449.937393 431.022099,448.243094 C431.022099,445.443817 431.003683,442.552501 430.966851,439.569061 C430.930018,436.58562 430.911602,433.620641 430.911602,430.674033 L430.911602,413.767956 L425.38674,413.767956 Z M460.966851,443.823204 C459.935538,441.686914 459.917122,439.90056 460.911602,438.464088 C461.906082,437.027617 463.360948,436.309392 465.276243,436.309392 C466.528551,436.309392 467.891337,436.788209 469.364641,437.745856 C470.91161,439.808482 472.753212,441.539588 474.889503,442.939227 C477.025793,444.338865 479.272548,444.817682 481.629834,444.375691 C482.734812,444.154695 483.710861,443.731127 484.558011,443.104972 C485.405161,442.478818 486.031306,441.760593 486.436464,440.950276 C486.841623,440.139959 487.044199,439.25599 487.044199,438.298343 C487.044199,437.340695 486.786375,436.456726 486.270718,435.646409 C485.607731,434.615096 484.889507,433.804791 484.116022,433.21547 C483.342538,432.626148 482.532233,432.184164 481.685083,431.889503 C480.837933,431.594842 480.027628,431.37385 479.254144,431.226519 C478.480659,431.079189 477.762434,430.895029 477.099448,430.674033 C475.99447,430.379372 474.889508,430.0663 473.78453,429.734807 C472.679552,429.403313 471.611423,428.979745 470.58011,428.464088 C469.548798,427.948432 468.554333,427.303871 467.596685,426.530387 C466.639038,425.756902 465.718236,424.780853 464.834254,423.60221 C464.023937,422.497232 463.397792,421.300191 462.955801,420.01105 C462.51381,418.721909 462.292818,417.524867 462.292818,416.41989 C462.292818,414.87292 462.587474,413.289143 463.176796,411.668508 C463.766117,410.047874 464.558006,408.556176 465.552486,407.19337 C466.546966,405.830564 467.725592,404.651939 469.088398,403.657459 C470.451204,402.662978 471.90607,401.981586 473.453039,401.61326 C476.546977,400.802943 479.769781,400.692446 483.121547,401.281768 C486.473313,401.87109 489.475125,402.902387 492.127072,404.375691 C493.158385,405.112343 493.931857,405.885815 494.447514,406.696133 C494.96317,407.50645 495.220994,408.279923 495.220994,409.016575 C495.220994,409.900557 494.981586,410.692446 494.502762,411.392265 C494.023939,412.092085 493.397794,412.662981 492.624309,413.104972 C491.850825,413.546964 490.966856,413.767956 489.972376,413.767956 C488.977896,413.767956 487.928182,413.473299 486.823204,412.883978 C485.939222,412.441987 484.705349,412.018418 483.121547,411.61326 C481.537745,411.208101 479.972383,411.060773 478.425414,411.171271 C476.878445,411.281769 475.589324,411.779001 474.558011,412.662983 C473.526698,413.546966 473.121546,415.020248 473.342541,417.082873 C473.784533,417.89319 474.318597,418.574583 474.944751,419.127072 C475.570906,419.679561 476.270714,420.139961 477.044199,420.508287 C477.817683,420.876613 478.646404,421.189686 479.530387,421.447514 C480.414369,421.705342 481.261506,421.94475 482.071823,422.165746 C484.355444,422.828733 486.454871,423.58379 488.370166,424.430939 C490.285461,425.278089 491.942903,426.327802 493.342541,427.58011 C494.74218,428.832419 495.828725,430.342533 496.60221,432.110497 C497.375694,433.878462 497.762431,436.01472 497.762431,438.519337 C497.762431,440.508297 497.320446,442.44198 496.436464,444.320442 C495.552482,446.198904 494.392272,447.874762 492.955801,449.348066 C491.51933,450.82137 489.880304,451.999996 488.038674,452.883978 C486.197044,453.76796 484.355442,454.209945 482.513812,454.209945 C478.388561,454.209945 474.373869,453.289144 470.469613,451.447514 C466.565358,449.605884 463.434634,447.064473 461.077348,443.823204 L460.966851,443.823204 Z M503.176796,446.033149 C503.176796,444.265185 503.858188,442.755071 505.220994,441.502762 C506.583801,440.250454 508.185994,439.624309 510.027624,439.624309 C511.942919,439.624309 513.581945,440.250454 514.944751,441.502762 C516.307557,442.755071 516.98895,444.265185 516.98895,446.033149 C516.98895,447.727449 516.307557,449.20073 514.944751,450.453039 C513.581945,451.705347 511.942919,452.331492 510.027624,452.331492 C508.185994,452.331492 506.583801,451.705347 505.220994,450.453039 C503.858188,449.20073 503.176796,447.727449 503.176796,446.033149 Z M504.171271,389.900552 C504.539597,388.353583 505.202573,387.21179 506.160221,386.475138 C507.117869,385.738486 508.22283,385.370166 509.475138,385.370166 C510.727446,385.370166 511.832408,385.701654 512.790055,386.364641 C513.747703,387.027628 514.484344,388.095757 515,389.569061 L515,427.138122 C514.85267,428.906086 514.281773,430.23204 513.287293,431.116022 C512.292813,432.000004 511.095771,432.441989 509.696133,432.441989 C508.370159,432.441989 507.173118,432.036836 506.104972,431.226519 C505.036827,430.416202 504.392266,429.200745 504.171271,427.58011 L504.171271,389.900552 Z" id="No-upcoming-events!" stroke="#D2F2D5" stroke-width="4" fill="#D2F2D5"></path>
            <path d="M219.281768,269.58011 C219.650094,267.959476 220.331487,266.762435 221.325967,265.98895 C222.320447,265.215466 223.443824,264.828729 224.696133,264.828729 C225.874776,264.828729 226.998153,265.19705 228.066298,265.933702 C229.134444,266.670354 229.852669,267.775315 230.220994,269.248619 C230.220994,279.635411 230.14733,289.745807 230,299.58011 C229.85267,309.414414 229.484349,319.561642 228.895028,330.022099 C228.821362,330.390425 228.78453,330.666666 228.78453,330.850829 L228.78453,331.348066 C228.268874,332.747705 227.532233,333.797418 226.574586,334.497238 C225.616938,335.197057 224.622473,335.546961 223.59116,335.546961 C221.896861,335.546961 220.276251,334.773488 218.729282,333.226519 L217.955801,331.900552 C215.451185,327.701636 212.891357,323.650112 210.276243,319.745856 C207.661129,315.841601 204.97239,312.047901 202.209945,308.364641 C199.4475,304.681381 196.629849,301.016593 193.756906,297.370166 C190.883964,293.723739 187.974232,290.05895 185.027624,286.375691 L185.027624,304.939227 C185.027624,308.769817 185.04604,312.747677 185.082873,316.872928 C185.119706,320.998179 185.138122,325.491688 185.138122,330.353591 C185.064456,332.268886 184.456728,333.668504 183.314917,334.552486 C182.173107,335.436469 180.976065,335.878453 179.723757,335.878453 C178.397783,335.878453 177.200742,335.454885 176.132597,334.607735 C175.064451,333.760585 174.419891,332.48988 174.198895,330.79558 C174.198895,325.933677 174.180479,321.016599 174.143646,316.044199 C174.106814,311.071798 174.088398,306.044224 174.088398,300.961326 L174.088398,271.016575 C174.456724,269.543271 175.119701,268.419893 176.077348,267.646409 C177.034996,266.872924 178.176789,266.486188 179.502762,266.486188 C180.60774,266.486188 182.007358,267.038669 183.701657,268.143646 L187.127072,272.121547 C192.799292,278.898745 198.250434,285.546929 203.480663,292.066298 C208.710892,298.585668 213.756882,305.528508 218.618785,312.895028 C218.83978,305.454843 219.005524,298.29101 219.116022,291.403315 C219.22652,284.515619 219.281768,277.278123 219.281768,269.690608 L219.281768,269.58011 Z M262.375691,285.823204 C265.469629,285.823204 268.213616,286.486181 270.607735,287.812155 C273.001854,289.138128 275.027616,290.88765 276.685083,293.060773 C278.34255,295.233897 279.594839,297.701644 280.441989,300.464088 C281.289139,303.226533 281.712707,306.044185 281.712707,308.917127 C281.712707,310.169435 281.639043,311.329645 281.491713,312.39779 C281.344382,313.465935 281.160222,314.552481 280.939227,315.657459 C280.128909,318.677731 278.931868,321.513799 277.348066,324.165746 C275.764265,326.817693 273.904246,329.119696 271.767956,331.071823 C269.631665,333.023951 267.255998,334.552481 264.640884,335.657459 C262.02577,336.762436 259.281782,337.314917 256.40884,337.314917 C253.388567,337.314917 250.64458,336.65194 248.176796,335.325967 C245.709012,333.999993 243.628001,332.287303 241.933702,330.187845 C240.239402,328.088387 238.931865,325.731136 238.01105,323.116022 C237.090235,320.500908 236.629834,317.867417 236.629834,315.21547 C236.629834,311.53221 237.311227,307.941086 238.674033,304.441989 C240.036839,300.942892 241.878441,297.812169 244.198895,295.049724 C246.519349,292.287279 249.24492,290.05894 252.375691,288.364641 C255.506461,286.670341 258.839761,285.823204 262.375691,285.823204 Z M248.121547,309.58011 C247.679556,311.27441 247.458564,313.152844 247.458564,315.21547 C247.458564,317.278095 247.75322,319.211777 248.342541,321.016575 C248.931863,322.821372 249.907912,324.349902 251.270718,325.60221 C252.633524,326.854518 254.45671,327.480663 256.740331,327.480663 C258.950287,327.480663 260.920802,326.836102 262.651934,325.546961 C264.383066,324.25782 265.856348,322.674043 267.071823,320.79558 C268.287299,318.917118 269.226516,316.891355 269.889503,314.718232 C270.55249,312.545109 270.883978,310.574594 270.883978,308.80663 C270.883978,307.185996 270.699818,305.583802 270.331492,304 C269.963166,302.416198 269.392269,300.998165 268.618785,299.745856 C267.8453,298.493548 266.906083,297.480667 265.801105,296.707182 C264.696127,295.933698 263.443838,295.546961 262.044199,295.546961 C260.276234,295.546961 258.618792,296.007362 257.071823,296.928177 C255.524854,297.848992 254.143652,298.990785 252.928177,300.353591 C251.712701,301.716397 250.69982,303.226511 249.889503,304.883978 C249.079186,306.541445 248.489873,308.106807 248.121547,309.58011 Z M370.662983,325.823204 C371.620631,327.149178 372.099448,328.364635 372.099448,329.469613 C372.099448,330.795587 371.602215,331.882132 370.607735,332.729282 C369.613255,333.576431 368.416213,334 367.016575,334 C365.322275,334 363.867409,333.373855 362.651934,332.121547 C361.436458,330.869239 360.423577,329.395957 359.61326,327.701657 C357.77163,329.395957 355.598539,330.869239 353.093923,332.121547 C350.589306,333.373855 348.047895,334 345.469613,334 C343.480653,334 341.510139,333.650096 339.558011,332.950276 C337.605883,332.250457 335.801113,331.292824 334.143646,330.077348 C332.48618,328.861872 331.04973,327.443839 329.834254,325.823204 C328.618778,324.20257 327.679561,322.471464 327.016575,320.629834 C326.427253,318.714539 326.040517,316.615113 325.856354,314.331492 C325.672191,312.047871 325.58011,309.653788 325.58011,307.149171 L325.58011,302.39779 C325.58011,300.850821 325.616943,299.340707 325.690608,297.867403 C325.764273,296.615095 325.819521,295.399638 325.856354,294.220994 C325.893186,293.042351 325.911602,291.93739 325.911602,290.906077 C326.279928,289.285443 326.961321,288.106818 327.955801,287.370166 C328.950281,286.633514 330.110491,286.265193 331.436464,286.265193 C332.541442,286.265193 333.627987,286.615098 334.696133,287.314917 C335.764278,288.014736 336.482503,289.101282 336.850829,290.574586 L336.850829,295.546961 C336.850829,297.167596 336.813997,298.788206 336.740331,300.40884 C336.666666,302.103139 336.611418,303.760581 336.574586,305.381215 C336.537753,307.00185 336.519337,308.732956 336.519337,310.574586 C336.519337,314.552506 337.29281,317.793726 338.839779,320.298343 C340.386748,322.802959 342.486175,324.055249 345.138122,324.055249 C347.274412,324.055249 349.263343,323.226528 351.104972,321.569061 C352.946602,319.911594 354.71454,318.014744 356.40884,315.878453 C355.966849,312.342524 355.745856,308.732983 355.745856,305.049724 C355.745856,302.913433 355.764272,300.740343 355.801105,298.530387 C355.837938,296.320431 356.05893,294.313085 356.464088,292.508287 C356.869247,290.70349 357.495392,289.230208 358.342541,288.088398 C359.189691,286.946587 360.460397,286.375691 362.154696,286.375691 C363.48067,286.375691 364.677711,286.817675 365.745856,287.701657 C366.814002,288.58564 367.348066,289.911593 367.348066,291.679558 C367.348066,293.226527 367.23757,294.994465 367.016575,296.983425 C366.869244,298.235734 366.758748,299.561687 366.685083,300.961326 C366.611418,302.360965 366.574586,303.797414 366.574586,305.270718 C366.574586,307.259678 366.629834,309.267025 366.740331,311.292818 C366.850829,313.31861 367.071822,315.252293 367.403315,317.093923 C367.734808,318.935552 368.158377,320.61141 368.674033,322.121547 C369.18969,323.631683 369.852666,324.865557 370.662983,325.823204 Z M381.381215,289.58011 C381.749541,288.033141 382.430934,286.872932 383.425414,286.099448 C384.419894,285.325963 385.543272,284.939227 386.79558,284.939227 C387.900558,284.939227 388.968687,285.270715 390,285.933702 C391.031313,286.596688 391.767954,287.554322 392.209945,288.80663 C393.830579,287.775317 395.598517,287.001844 397.513812,286.486188 C399.429107,285.970531 401.344373,285.712707 403.259669,285.712707 C406.206276,285.712707 408.950264,286.338852 411.491713,287.59116 C414.033162,288.843469 416.243085,290.537743 418.121547,292.674033 C420.000009,294.810324 421.473291,297.314903 422.541436,300.187845 C423.609582,303.060788 424.143646,306.081015 424.143646,309.248619 C424.143646,312.784548 423.57275,316.025768 422.430939,318.972376 C421.289129,321.918983 419.576439,324.460394 417.292818,326.596685 C415.009197,328.732976 412.209961,330.408834 408.895028,331.624309 C405.580094,332.839785 401.712729,333.447514 397.292818,333.447514 L394.751381,333.447514 C393.941064,333.447514 393.130759,333.37385 392.320442,333.226519 L392.320442,355.546961 C392.246777,357.388591 391.639048,358.751377 390.497238,359.635359 C389.355427,360.519341 388.121554,360.961326 386.79558,360.961326 C385.543272,360.961326 384.383062,360.556173 383.314917,359.745856 C382.246772,358.935539 381.602211,357.68325 381.381215,355.98895 L381.381215,289.58011 Z M392.320442,303.060773 L392.320442,323.392265 C394.014741,323.760591 395.672183,323.944751 397.292818,323.944751 C401.933725,323.944751 405.80109,322.692462 408.895028,320.187845 C411.988966,317.683229 413.535912,314.221017 413.535912,309.801105 C413.535912,308.106806 413.296503,306.394115 412.81768,304.662983 C412.338856,302.931851 411.657463,301.36649 410.773481,299.966851 C409.889498,298.567212 408.839785,297.425419 407.624309,296.541436 C406.408834,295.657454 405.101296,295.21547 403.701657,295.21547 C401.418036,295.21547 399.392274,295.970527 397.624309,297.480663 C395.856345,298.990799 394.346231,300.556161 393.093923,302.176796 L392.320442,303.060773 Z M462.154696,321.513812 C462.744018,320.924491 463.406994,320.519338 464.143646,320.298343 C464.880298,320.077347 465.616939,319.966851 466.353591,319.966851 C467.826895,319.966851 469.042352,320.427251 470,321.348066 C470.957648,322.268881 471.436464,323.355427 471.436464,324.607735 C471.436464,325.860043 470.883983,327.149165 469.779006,328.475138 C467.71638,330.758759 465.322297,332.453033 462.596685,333.558011 C459.871073,334.662989 457.035006,335.21547 454.088398,335.21547 C452.173103,335.21547 450.276252,334.957645 448.39779,334.441989 C446.519328,333.926333 444.75139,333.134444 443.093923,332.066298 C441.436456,330.998153 439.944758,329.690615 438.618785,328.143646 C437.292811,326.596677 436.261514,324.791907 435.524862,322.729282 L435.524862,322.839779 C433.683232,318.640863 432.946591,314.368346 433.314917,310.022099 C433.535913,306.928161 434.217306,303.815854 435.359116,300.685083 C436.500927,297.554312 438.066288,294.699829 440.055249,292.121547 C442.044209,289.543265 444.419876,287.443839 447.18232,285.823204 C449.944765,284.20257 452.983409,283.392265 456.298343,283.392265 C457.329655,283.392265 458.32412,283.447513 459.281768,283.558011 C460.239415,283.668509 461.233881,283.907917 462.265193,284.276243 C464.327819,285.012895 466.187837,285.860032 467.845304,286.81768 C469.502771,287.775327 471.178629,289.101281 472.872928,290.79558 C473.60958,292.047888 473.977901,293.116018 473.977901,294 C473.977901,294.957648 473.756908,295.804785 473.314917,296.541436 C472.872926,297.278088 472.265197,297.830569 471.491713,298.198895 C470.718228,298.567221 469.797427,298.732965 468.729282,298.696133 C467.661136,298.6593 466.537759,298.346228 465.359116,297.756906 C463.812147,296.136272 462.320449,294.976062 460.883978,294.276243 C459.447507,293.576424 458.066305,293.226519 456.740331,293.226519 C454.972367,293.226519 453.314925,293.760584 451.767956,294.828729 C450.220987,295.896875 448.895033,297.314908 447.790055,299.082873 C446.685077,300.850838 445.801108,302.839768 445.138122,305.049724 C444.475135,307.25968 444.143646,309.506434 444.143646,311.790055 C444.143646,313.042364 444.235727,314.294653 444.41989,315.546961 C444.604052,316.79927 444.953957,317.977895 445.469613,319.082873 C446.427261,321.292829 447.67955,322.913439 449.226519,323.944751 C450.773488,324.976064 452.394098,325.491713 454.088398,325.491713 C455.340706,325.491713 456.66666,325.160224 458.066298,324.497238 C459.465937,323.834251 460.791891,322.839786 462.044199,321.513812 L462.154696,321.513812 Z M502.707182,285.823204 C505.80112,285.823204 508.545108,286.486181 510.939227,287.812155 C513.333345,289.138128 515.359108,290.88765 517.016575,293.060773 C518.674041,295.233897 519.926331,297.701644 520.773481,300.464088 C521.62063,303.226533 522.044199,306.044185 522.044199,308.917127 C522.044199,310.169435 521.970535,311.329645 521.823204,312.39779 C521.675874,313.465935 521.491714,314.552481 521.270718,315.657459 C520.460401,318.677731 519.26336,321.513799 517.679558,324.165746 C516.095756,326.817693 514.235738,329.119696 512.099448,331.071823 C509.963157,333.023951 507.58749,334.552481 504.972376,335.657459 C502.357261,336.762436 499.613274,337.314917 496.740331,337.314917 C493.720059,337.314917 490.976071,336.65194 488.508287,335.325967 C486.040503,333.999993 483.959493,332.287303 482.265193,330.187845 C480.570894,328.088387 479.263356,325.731136 478.342541,323.116022 C477.421727,320.500908 476.961326,317.867417 476.961326,315.21547 C476.961326,311.53221 477.642719,307.941086 479.005525,304.441989 C480.368331,300.942892 482.209933,297.812169 484.530387,295.049724 C486.85084,292.287279 489.576412,290.05894 492.707182,288.364641 C495.837953,286.670341 499.171253,285.823204 502.707182,285.823204 Z M488.453039,309.58011 C488.011048,311.27441 487.790055,313.152844 487.790055,315.21547 C487.790055,317.278095 488.084712,319.211777 488.674033,321.016575 C489.263355,322.821372 490.239404,324.349902 491.60221,325.60221 C492.965016,326.854518 494.788202,327.480663 497.071823,327.480663 C499.281779,327.480663 501.252293,326.836102 502.983425,325.546961 C504.714557,324.25782 506.187839,322.674043 507.403315,320.79558 C508.618791,318.917118 509.558008,316.891355 510.220994,314.718232 C510.883981,312.545109 511.21547,310.574594 511.21547,308.80663 C511.21547,307.185996 511.031309,305.583802 510.662983,304 C510.294657,302.416198 509.723761,300.998165 508.950276,299.745856 C508.176792,298.493548 507.237575,297.480667 506.132597,296.707182 C505.027619,295.933698 503.775329,295.546961 502.375691,295.546961 C500.607726,295.546961 498.950284,296.007362 497.403315,296.928177 C495.856346,297.848992 494.475144,298.990785 493.259669,300.353591 C492.044193,301.716397 491.031312,303.226511 490.220994,304.883978 C489.410677,306.541445 488.821365,308.106807 488.453039,309.58011 Z M557.955801,330.243094 L557.955801,300.519337 C557.145484,298.530377 555.930027,296.965015 554.309392,295.823204 C552.688758,294.681394 550.883988,294.220993 548.895028,294.441989 C548.158376,294.515654 547.532231,294.662982 547.016575,294.883978 C546.500918,295.104973 545.98527,295.436462 545.469613,295.878453 C544.953957,296.320444 544.38306,296.909757 543.756906,297.646409 C543.130752,298.383061 542.375695,299.303862 541.491713,300.40884 L541.491713,330.353591 C541.418048,332.195221 540.810319,333.558007 539.668508,334.441989 C538.526698,335.325971 537.292824,335.767956 535.966851,335.767956 C534.714543,335.767956 533.554333,335.362803 532.486188,334.552486 C531.418043,333.742169 530.773482,332.48988 530.552486,330.79558 L530.552486,288.475138 C531.436469,285.454865 533.241239,283.944751 535.966851,283.944751 C536.998164,283.944751 537.955797,284.18416 538.839779,284.662983 C539.723761,285.141807 540.42357,285.933696 540.939227,287.038674 C542.044204,286.375687 543.351742,285.786375 544.861878,285.270718 C546.372015,284.755062 547.974209,284.497238 549.668508,284.497238 C552.320455,284.497238 554.990778,285.08655 557.679558,286.265193 C560.368338,287.443836 562.596676,288.990782 564.364641,290.906077 C565.101293,290.169425 565.930014,289.414369 566.850829,288.640884 C567.771644,287.867399 568.729277,287.167591 569.723757,286.541436 C570.718237,285.915282 571.749534,285.399634 572.81768,284.994475 C573.885825,284.589317 574.97237,284.38674 576.077348,284.38674 C578.434634,284.38674 580.755053,284.791893 583.038674,285.60221 C585.322295,286.412527 587.38489,287.499072 589.226519,288.861878 C591.068149,290.224685 592.541431,291.808462 593.646409,293.61326 C594.751387,295.418057 595.303867,297.351739 595.303867,299.414365 L595.303867,329.911602 C595.230202,331.753232 594.622473,333.116018 593.480663,334 C592.338852,334.883982 591.141811,335.325967 589.889503,335.325967 C588.563529,335.325967 587.384904,334.920814 586.353591,334.110497 C585.322278,333.30018 584.696134,332.047891 584.475138,330.353591 L584.475138,300.519337 C583.664821,298.235716 582.523028,296.633522 581.049724,295.712707 C579.57642,294.791892 578.13997,294.331492 576.740331,294.331492 C575.046032,294.331492 573.535918,294.773476 572.209945,295.657459 C570.883971,296.541441 569.705346,298.198883 568.674033,300.629834 L568.78453,329.801105 C568.710865,331.642735 568.121552,333.00552 567.016575,333.889503 C565.911597,334.773485 564.696139,335.21547 563.370166,335.21547 C562.044192,335.21547 560.865567,334.810317 559.834254,334 C558.802941,333.189683 558.176797,331.937393 557.955801,330.243094 Z M618.839779,330.132597 C618.766114,331.974227 618.176801,333.337012 617.071823,334.220994 C615.966845,335.104977 614.751388,335.546961 613.425414,335.546961 C612.099441,335.546961 610.920815,335.141809 609.889503,334.331492 C608.85819,333.521175 608.232045,332.268885 608.01105,330.574586 L607.679558,288.585635 C608.047884,287.038666 608.710861,285.878457 609.668508,285.104972 C610.626156,284.331488 611.767949,283.944751 613.093923,283.944751 C614.272566,283.944751 615.377527,284.294656 616.40884,284.994475 C617.440152,285.694294 618.139961,286.78084 618.508287,288.254144 L618.839779,330.132597 Z M606.906077,271.016575 C606.906077,269.322275 607.513806,267.867409 608.729282,266.651934 C609.944757,265.436458 611.399623,264.828729 613.093923,264.828729 C614.861887,264.828729 616.353585,265.436458 617.569061,266.651934 C618.784536,267.867409 619.392265,269.322275 619.392265,271.016575 C619.392265,272.710874 618.784536,274.147324 617.569061,275.325967 C616.353585,276.50461 614.861887,277.093923 613.093923,277.093923 C611.399623,277.093923 609.944757,276.50461 608.729282,275.325967 C607.513806,274.147324 606.906077,272.710874 606.906077,271.016575 Z M672.651934,330.353591 C672.578269,332.195221 671.97054,333.558007 670.828729,334.441989 C669.686919,335.325971 668.489877,335.767956 667.237569,335.767956 C665.911596,335.767956 664.714554,335.362803 663.646409,334.552486 C662.578264,333.742169 661.933703,332.48988 661.712707,330.79558 L661.712707,328.088398 C661.712707,327.093918 661.694291,325.767964 661.657459,324.110497 C661.620626,322.45303 661.60221,320.316772 661.60221,317.701657 L661.60221,307.480663 C661.60221,306.523015 661.639042,305.307558 661.712707,303.834254 C661.786372,302.36095 661.712708,300.906085 661.491713,299.469613 C661.270717,298.033142 660.847149,296.799269 660.220994,295.767956 C659.59484,294.736643 658.618791,294.220994 657.292818,294.220994 C655.082862,294.220994 652.928187,294.847139 650.828729,296.099448 C648.729271,297.351756 646.832421,299.193358 645.138122,301.624309 C644.5488,302.508292 644.088399,303.337013 643.756906,304.110497 C643.425413,304.883982 643.186004,306.007359 643.038674,307.480663 L643.038674,318.585635 C643.038674,322.232062 643.075506,325.933683 643.149171,329.690608 C643.075506,331.532238 642.486193,332.895023 641.381215,333.779006 C640.276238,334.662988 639.06078,335.104972 637.734807,335.104972 C636.482498,335.104972 635.322289,334.69982 634.254144,333.889503 C633.185998,333.079186 632.541438,331.826896 632.320442,330.132597 L632.320442,310.243094 C632.320442,307.001825 632.302026,303.74219 632.265193,300.464088 C632.228361,297.185987 632.209945,293.779023 632.209945,290.243094 C632.578271,288.62246 633.259664,287.443834 634.254144,286.707182 C635.248624,285.97053 636.372001,285.60221 637.624309,285.60221 C638.655622,285.60221 639.686919,285.915282 640.718232,286.541436 C641.749545,287.167591 642.449354,288.106808 642.81768,289.359116 C644.95397,287.885812 647.237557,286.725603 649.668508,285.878453 C652.09946,285.031303 654.604039,284.607735 657.18232,284.607735 C659.981598,284.607735 662.651921,285.270712 665.19337,286.596685 C667.734819,287.922659 669.778998,289.948421 671.325967,292.674033 C672.062619,294.000007 672.541435,295.399624 672.762431,296.872928 C672.983427,298.346232 673.093923,299.856346 673.093923,301.403315 C673.093923,302.950284 673.020259,304.478814 672.872928,305.98895 C672.725598,307.499087 672.651934,308.91712 672.651934,310.243094 L672.651934,330.353591 Z M685.248619,351.127072 C685.248619,349.580103 685.98526,348.327813 687.458564,347.370166 C688.931867,346.412518 690.847134,346.302022 693.20442,347.038674 C697.477001,349.837951 701.565358,351.237569 705.469613,351.237569 C709.668529,351.237569 712.670341,350.26152 714.475138,348.309392 C716.279935,346.357265 717.18232,343.502781 717.18232,339.745856 L717.18232,333.779006 L712.762431,335.21547 C710.994466,335.657461 709.521185,335.970533 708.342541,336.154696 C707.163898,336.338859 705.985273,336.430939 704.80663,336.430939 C701.491696,336.430939 698.453052,335.712714 695.690608,334.276243 C692.928163,332.839772 690.589328,330.961338 688.674033,328.640884 C686.758738,326.32043 685.26704,323.705355 684.198895,320.79558 C683.13075,317.885805 682.596685,314.920825 682.596685,311.900552 C682.596685,310.206253 682.744013,308.475147 683.038674,306.707182 C683.333335,304.939218 683.812151,303.208112 684.475138,301.513812 C685.285455,299.451187 686.408833,297.499088 687.845304,295.657459 C689.281775,293.815829 690.939217,292.232051 692.81768,290.906077 C694.696142,289.580104 696.703488,288.530391 698.839779,287.756906 C700.97607,286.983422 703.185992,286.596685 705.469613,286.596685 C707.97423,286.596685 710.239401,287.020254 712.265193,287.867403 C714.290986,288.714553 716.261501,289.764266 718.176796,291.016575 C719.208108,289.543271 720.644558,288.80663 722.486188,288.80663 C723.738496,288.80663 724.88029,289.156534 725.911602,289.856354 C726.942915,290.556173 727.642724,291.642718 728.01105,293.116022 L728.01105,339.414365 C728.01105,343.31862 727.403321,346.688752 726.187845,349.524862 C724.97237,352.360972 722.633535,354.920799 719.171271,357.20442 C717.771632,358.088402 716.224686,358.880291 714.530387,359.58011 C712.836087,360.27993 711.141813,360.703498 709.447514,360.850829 C707.753214,361.071824 705.59854,361.09024 702.983425,360.906077 C700.368311,360.721914 697.771652,360.243098 695.19337,359.469613 C692.615088,358.696129 690.368334,357.646415 688.453039,356.320442 C686.537744,354.994469 685.469614,353.263362 685.248619,351.127072 Z M717.18232,322.066298 C717.18232,318.751365 717.163904,315.528561 717.127072,312.39779 C717.090239,309.267019 717.071823,306.044215 717.071823,302.729282 C715.598519,301.403308 714.033157,300.077355 712.375691,298.751381 C710.718224,297.425408 708.93187,296.688767 707.016575,296.541436 C703.996302,296.320441 701.583803,296.762425 699.779006,297.867403 C697.974208,298.972381 696.593007,300.353583 695.635359,302.01105 C694.677712,303.668517 694.069983,305.381207 693.812155,307.149171 C693.554327,308.917136 693.425414,310.353586 693.425414,311.458564 C693.425414,313.81585 693.756903,315.933692 694.41989,317.812155 C695.082876,319.690617 695.985261,321.274395 697.127072,322.563536 C698.268882,323.852677 699.613252,324.847142 701.160221,325.546961 C702.70719,326.246781 704.3278,326.596685 706.022099,326.596685 C709.410698,326.596685 713.130735,325.086571 717.18232,322.066298 Z M252.541436,430.40884 C253.72008,429.966849 254.806625,429.782688 255.801105,429.856354 C256.795585,429.930019 257.642722,430.187843 258.342541,430.629834 C259.042361,431.071825 259.594841,431.642722 260,432.342541 C260.405159,433.042361 260.607735,433.797418 260.607735,434.607735 C260.607735,435.418052 260.34991,436.209941 259.834254,436.983425 C259.318598,437.75691 258.508293,438.475135 257.403315,439.138122 C254.309377,440.979751 250.976077,442.545113 247.403315,443.834254 C243.830553,445.123395 240.239429,445.767956 236.629834,445.767956 C234.493544,445.767956 232.320453,445.454883 230.110497,444.828729 C227.900541,444.202575 225.837947,443.226526 223.922652,441.900552 C220.828714,439.616931 218.416215,436.61512 216.685083,432.895028 C214.953951,429.174935 214.088398,425.362819 214.088398,421.458564 C214.088398,417.627973 214.843455,413.944769 216.353591,410.40884 C217.863728,406.87291 220.276227,404.000011 223.59116,401.790055 C226.243107,399.948425 229.116007,398.475144 232.209945,397.370166 C235.303883,396.265188 238.508271,395.712707 241.823204,395.712707 C243.591169,395.712707 245.322275,395.896867 247.016575,396.265193 C248.637209,396.633519 250.147323,397.27808 251.546961,398.198895 C252.9466,399.11971 254.162057,400.224671 255.19337,401.513812 C256.224683,402.802953 257.034988,404.220987 257.624309,405.767956 C258.213631,407.314925 258.508287,408.861871 258.508287,410.40884 C258.508287,411.440152 258.397791,412.434618 258.176796,413.392265 C257.9558,414.349913 257.550648,415.270714 256.961326,416.154696 C255.856348,417.922661 254.346234,419.451191 252.430939,420.740331 C250.515644,422.029472 248.416218,423.15285 246.132597,424.110497 C243.848976,425.068145 241.491725,425.87845 239.060773,426.541436 C236.629822,427.204423 234.346235,427.793736 232.209945,428.309392 C229.926324,428.898714 228.471458,429.267034 227.845304,429.414365 C227.21915,429.561695 226.832413,429.635359 226.685083,429.635359 C227.716396,431.77165 229.189677,433.465924 231.104972,434.718232 C233.020267,435.97054 235.377518,436.486189 238.176796,436.265193 C240.534082,436.117863 242.983413,435.43647 245.524862,434.220994 C248.066311,433.005519 250.405146,431.734813 252.541436,430.40884 Z M232.209945,408.198895 C229.778993,409.451203 227.974223,411.127061 226.79558,413.226519 C225.616937,415.325977 224.95396,417.664812 224.80663,420.243094 L224.972376,420.187845 C225.082873,420.151013 225.414362,420.058933 225.966851,419.911602 C226.51934,419.764272 227.348061,419.524864 228.453039,419.19337 C229.558017,418.861877 231.141794,418.401476 233.20442,417.812155 C233.941072,417.591159 235.046033,417.278087 236.519337,416.872928 C237.992641,416.46777 239.484339,415.988953 240.994475,415.436464 C242.504612,414.883975 243.904229,414.239414 245.19337,413.502762 C246.482511,412.76611 247.348064,411.955806 247.790055,411.071823 C247.937386,408.935533 247.458569,407.462251 246.353591,406.651934 C245.248613,405.841617 243.92266,405.436464 242.375691,405.436464 C240.681391,405.436464 238.876621,405.749536 236.961326,406.375691 C235.046031,407.001845 233.462253,407.609573 232.209945,408.198895 Z M295.414365,397.812155 C296.003686,396.780842 296.795575,396.025785 297.790055,395.546961 C298.784535,395.068138 299.760585,394.828729 300.718232,394.828729 C302.117871,394.828729 303.351744,395.325962 304.41989,396.320442 C305.488035,397.314922 305.948435,398.769788 305.801105,400.685083 C304.990788,403.779021 304.069987,406.780833 303.038674,409.690608 C302.007361,412.600383 300.976064,415.52853 299.944751,418.475138 L300.055249,418.475138 L298.287293,423.337017 L296.40884,428.309392 C295.451192,431.035004 294.493559,433.723744 293.535912,436.375691 C292.578264,439.027638 291.583799,441.495385 290.552486,443.779006 C289.226513,445.325975 287.679567,446.099448 285.911602,446.099448 C283.554316,446.099448 281.896874,445.104982 280.939227,443.116022 C278.360945,436.191494 275.672206,429.322318 272.872928,422.508287 C270.073651,415.694257 267.053423,409.046073 263.812155,402.563536 C263.370164,401.532223 263.167587,400.556174 263.20442,399.635359 C263.241252,398.714544 263.480661,397.904239 263.922652,397.20442 C264.364643,396.504601 264.953956,395.95212 265.690608,395.546961 C266.42726,395.141803 267.237565,394.939227 268.121547,394.939227 C270.036842,394.939227 271.767948,395.933692 273.314917,397.922652 C275.451208,402.342564 277.56905,406.928153 279.668508,411.679558 C281.767966,416.430963 283.848977,421.421705 285.911602,426.651934 C286.132598,426.136277 286.335174,425.602213 286.519337,425.049724 C286.7035,424.497235 286.906076,423.852674 287.127072,423.116022 C287.348067,422.37937 287.624308,421.495401 287.955801,420.464088 C288.287294,419.432776 288.710863,418.180486 289.226519,416.707182 C290.331497,413.613244 291.399627,410.519352 292.430939,407.425414 C293.462252,404.331476 294.456717,401.127088 295.414365,397.812155 Z M350.331492,430.40884 C351.510135,429.966849 352.59668,429.782688 353.59116,429.856354 C354.58564,429.930019 355.432777,430.187843 356.132597,430.629834 C356.832416,431.071825 357.384897,431.642722 357.790055,432.342541 C358.195214,433.042361 358.39779,433.797418 358.39779,434.607735 C358.39779,435.418052 358.139966,436.209941 357.624309,436.983425 C357.108653,437.75691 356.298348,438.475135 355.19337,439.138122 C352.099432,440.979751 348.766132,442.545113 345.19337,443.834254 C341.620608,445.123395 338.029484,445.767956 334.41989,445.767956 C332.283599,445.767956 330.110508,445.454883 327.900552,444.828729 C325.690597,444.202575 323.628002,443.226526 321.712707,441.900552 C318.618769,439.616931 316.20627,436.61512 314.475138,432.895028 C312.744006,429.174935 311.878453,425.362819 311.878453,421.458564 C311.878453,417.627973 312.63351,413.944769 314.143646,410.40884 C315.653783,406.87291 318.066282,404.000011 321.381215,401.790055 C324.033162,399.948425 326.906062,398.475144 330,397.370166 C333.093938,396.265188 336.298326,395.712707 339.61326,395.712707 C341.381224,395.712707 343.11233,395.896867 344.80663,396.265193 C346.427264,396.633519 347.937378,397.27808 349.337017,398.198895 C350.736655,399.11971 351.952113,400.224671 352.983425,401.513812 C354.014738,402.802953 354.825043,404.220987 355.414365,405.767956 C356.003686,407.314925 356.298343,408.861871 356.298343,410.40884 C356.298343,411.440152 356.187846,412.434618 355.966851,413.392265 C355.745855,414.349913 355.340703,415.270714 354.751381,416.154696 C353.646403,417.922661 352.13629,419.451191 350.220994,420.740331 C348.305699,422.029472 346.206273,423.15285 343.922652,424.110497 C341.639031,425.068145 339.28178,425.87845 336.850829,426.541436 C334.419877,427.204423 332.136291,427.793736 330,428.309392 C327.716379,428.898714 326.261513,429.267034 325.635359,429.414365 C325.009205,429.561695 324.622469,429.635359 324.475138,429.635359 C325.506451,431.77165 326.979733,433.465924 328.895028,434.718232 C330.810323,435.97054 333.167573,436.486189 335.966851,436.265193 C338.324137,436.117863 340.773468,435.43647 343.314917,434.220994 C345.856366,433.005519 348.195201,431.734813 350.331492,430.40884 Z M330,408.198895 C327.569049,409.451203 325.764278,411.127061 324.585635,413.226519 C323.406992,415.325977 322.744015,417.664812 322.596685,420.243094 L322.762431,420.187845 C322.872929,420.151013 323.204417,420.058933 323.756906,419.911602 C324.309395,419.764272 325.138116,419.524864 326.243094,419.19337 C327.348072,418.861877 328.93185,418.401476 330.994475,417.812155 C331.731127,417.591159 332.836088,417.278087 334.309392,416.872928 C335.782696,416.46777 337.274394,415.988953 338.78453,415.436464 C340.294667,414.883975 341.694285,414.239414 342.983425,413.502762 C344.272566,412.76611 345.138119,411.955806 345.58011,411.071823 C345.727441,408.935533 345.248624,407.462251 344.143646,406.651934 C343.038669,405.841617 341.712715,405.436464 340.165746,405.436464 C338.471446,405.436464 336.666676,405.749536 334.751381,406.375691 C332.836086,407.001845 331.252308,407.609573 330,408.198895 Z M406.574586,440.353591 C406.50092,442.195221 405.893192,443.558007 404.751381,444.441989 C403.609571,445.325971 402.412529,445.767956 401.160221,445.767956 C399.834248,445.767956 398.637206,445.362803 397.569061,444.552486 C396.500915,443.742169 395.856355,442.48988 395.635359,440.79558 L395.635359,438.088398 C395.635359,437.093918 395.616943,435.767964 395.58011,434.110497 C395.543278,432.45303 395.524862,430.316772 395.524862,427.701657 L395.524862,417.480663 C395.524862,416.523015 395.561694,415.307558 395.635359,413.834254 C395.709024,412.36095 395.63536,410.906085 395.414365,409.469613 C395.193369,408.033142 394.769801,406.799269 394.143646,405.767956 C393.517492,404.736643 392.541443,404.220994 391.21547,404.220994 C389.005514,404.220994 386.850839,404.847139 384.751381,406.099448 C382.651923,407.351756 380.755073,409.193358 379.060773,411.624309 C378.471452,412.508292 378.011051,413.337013 377.679558,414.110497 C377.348065,414.883982 377.108656,416.007359 376.961326,417.480663 L376.961326,428.585635 C376.961326,432.232062 376.998158,435.933683 377.071823,439.690608 C376.998158,441.532238 376.408845,442.895023 375.303867,443.779006 C374.19889,444.662988 372.983432,445.104972 371.657459,445.104972 C370.40515,445.104972 369.244941,444.69982 368.176796,443.889503 C367.10865,443.079186 366.46409,441.826896 366.243094,440.132597 L366.243094,420.243094 C366.243094,417.001825 366.224678,413.74219 366.187845,410.464088 C366.151013,407.185987 366.132597,403.779023 366.132597,400.243094 C366.500923,398.62246 367.182315,397.443834 368.176796,396.707182 C369.171276,395.97053 370.294653,395.60221 371.546961,395.60221 C372.578274,395.60221 373.609571,395.915282 374.640884,396.541436 C375.672197,397.167591 376.372006,398.106808 376.740331,399.359116 C378.876622,397.885812 381.160209,396.725603 383.59116,395.878453 C386.022112,395.031303 388.526691,394.607735 391.104972,394.607735 C393.90425,394.607735 396.574573,395.270712 399.116022,396.596685 C401.657471,397.922659 403.70165,399.948421 405.248619,402.674033 C405.985271,404.000007 406.464087,405.399624 406.685083,406.872928 C406.906078,408.346232 407.016575,409.856346 407.016575,411.403315 C407.016575,412.950284 406.94291,414.478814 406.79558,415.98895 C406.64825,417.499087 406.574586,418.91712 406.574586,420.243094 L406.574586,440.353591 Z M420.38674,405.767956 C418.54511,405.473295 417.163909,404.883982 416.243094,404 C415.322279,403.116018 414.861878,402.08472 414.861878,400.906077 C414.861878,399.727434 415.359111,398.622473 416.353591,397.59116 C417.348071,396.559848 418.839769,396.044199 420.828729,396.044199 L425.911602,396.044199 L425.911602,379.138122 C426.279928,377.591152 426.961321,376.430943 427.955801,375.657459 C428.950281,374.883974 430.073659,374.497238 431.325967,374.497238 C432.50461,374.497238 433.609571,374.847142 434.640884,375.546961 C435.672197,376.246781 436.372006,377.333326 436.740331,378.80663 L436.740331,396.044199 L446.464088,396.044199 C448.084723,396.48619 449.281764,397.149167 450.055249,398.033149 C450.828733,398.917131 451.21547,399.874765 451.21547,400.906077 C451.21547,403.263364 449.521196,404.883973 446.132597,405.767956 L436.740331,405.767956 L436.740331,426.099448 C436.740331,428.383069 436.758748,430.666655 436.79558,432.950276 C436.832413,435.233897 436.850829,437.517484 436.850829,439.801105 C436.850829,441.642735 436.261516,443.00552 435.082873,443.889503 C433.90423,444.773485 432.688772,445.21547 431.436464,445.21547 C430.184156,445.21547 429.023946,444.810317 427.955801,444 C426.887656,443.189683 426.243095,441.937393 426.022099,440.243094 C426.022099,437.443817 426.003683,434.552501 425.966851,431.569061 C425.930018,428.58562 425.911602,425.620641 425.911602,422.674033 L425.911602,405.767956 L420.38674,405.767956 Z M455.966851,435.823204 C454.935538,433.686914 454.917122,431.90056 455.911602,430.464088 C456.906082,429.027617 458.360948,428.309392 460.276243,428.309392 C461.528551,428.309392 462.891337,428.788209 464.364641,429.745856 C465.91161,431.808482 467.753212,433.539588 469.889503,434.939227 C472.025793,436.338865 474.272548,436.817682 476.629834,436.375691 C477.734812,436.154695 478.710861,435.731127 479.558011,435.104972 C480.405161,434.478818 481.031306,433.760593 481.436464,432.950276 C481.841623,432.139959 482.044199,431.25599 482.044199,430.298343 C482.044199,429.340695 481.786375,428.456726 481.270718,427.646409 C480.607731,426.615096 479.889507,425.804791 479.116022,425.21547 C478.342538,424.626148 477.532233,424.184164 476.685083,423.889503 C475.837933,423.594842 475.027628,423.37385 474.254144,423.226519 C473.480659,423.079189 472.762434,422.895029 472.099448,422.674033 C470.99447,422.379372 469.889508,422.0663 468.78453,421.734807 C467.679552,421.403313 466.611423,420.979745 465.58011,420.464088 C464.548798,419.948432 463.554333,419.303871 462.596685,418.530387 C461.639038,417.756902 460.718236,416.780853 459.834254,415.60221 C459.023937,414.497232 458.397792,413.300191 457.955801,412.01105 C457.51381,410.721909 457.292818,409.524867 457.292818,408.41989 C457.292818,406.87292 457.587474,405.289143 458.176796,403.668508 C458.766117,402.047874 459.558006,400.556176 460.552486,399.19337 C461.546966,397.830564 462.725592,396.651939 464.088398,395.657459 C465.451204,394.662978 466.90607,393.981586 468.453039,393.61326 C471.546977,392.802943 474.769781,392.692446 478.121547,393.281768 C481.473313,393.87109 484.475125,394.902387 487.127072,396.375691 C488.158385,397.112343 488.931857,397.885815 489.447514,398.696133 C489.96317,399.50645 490.220994,400.279923 490.220994,401.016575 C490.220994,401.900557 489.981586,402.692446 489.502762,403.392265 C489.023939,404.092085 488.397794,404.662981 487.624309,405.104972 C486.850825,405.546964 485.966856,405.767956 484.972376,405.767956 C483.977896,405.767956 482.928182,405.473299 481.823204,404.883978 C480.939222,404.441987 479.705349,404.018418 478.121547,403.61326 C476.537745,403.208101 474.972383,403.060773 473.425414,403.171271 C471.878445,403.281769 470.589324,403.779001 469.558011,404.662983 C468.526698,405.546966 468.121546,407.020248 468.342541,409.082873 C468.784533,409.89319 469.318597,410.574583 469.944751,411.127072 C470.570906,411.679561 471.270714,412.139961 472.044199,412.508287 C472.817683,412.876613 473.646404,413.189686 474.530387,413.447514 C475.414369,413.705342 476.261506,413.94475 477.071823,414.165746 C479.355444,414.828733 481.454871,415.58379 483.370166,416.430939 C485.285461,417.278089 486.942903,418.327802 488.342541,419.58011 C489.74218,420.832419 490.828725,422.342533 491.60221,424.110497 C492.375694,425.878462 492.762431,428.01472 492.762431,430.519337 C492.762431,432.508297 492.320446,434.44198 491.436464,436.320442 C490.552482,438.198904 489.392272,439.874762 487.955801,441.348066 C486.51933,442.82137 484.880304,443.999996 483.038674,444.883978 C481.197044,445.76796 479.355442,446.209945 477.513812,446.209945 C473.388561,446.209945 469.373869,445.289144 465.469613,443.447514 C461.565358,441.605884 458.434634,439.064473 456.077348,435.823204 L455.966851,435.823204 Z M498.176796,438.033149 C498.176796,436.265185 498.858188,434.755071 500.220994,433.502762 C501.583801,432.250454 503.185994,431.624309 505.027624,431.624309 C506.942919,431.624309 508.581945,432.250454 509.944751,433.502762 C511.307557,434.755071 511.98895,436.265185 511.98895,438.033149 C511.98895,439.727449 511.307557,441.20073 509.944751,442.453039 C508.581945,443.705347 506.942919,444.331492 505.027624,444.331492 C503.185994,444.331492 501.583801,443.705347 500.220994,442.453039 C498.858188,441.20073 498.176796,439.727449 498.176796,438.033149 Z M499.171271,381.900552 C499.539597,380.353583 500.202573,379.21179 501.160221,378.475138 C502.117869,377.738486 503.22283,377.370166 504.475138,377.370166 C505.727446,377.370166 506.832408,377.701654 507.790055,378.364641 C508.747703,379.027628 509.484344,380.095757 510,381.569061 L510,419.138122 C509.85267,420.906086 509.281773,422.23204 508.287293,423.116022 C507.292813,424.000004 506.095771,424.441989 504.696133,424.441989 C503.370159,424.441989 502.173118,424.036836 501.104972,423.226519 C500.036827,422.416202 499.392266,421.200745 499.171271,419.58011 L499.171271,381.900552 Z" id="No-upcoming-events!" stroke="#A2ADB2" stroke-width="4" fill="#A2ADB2"></path>
            <path d="M224.280833,22.5548891 C223.277807,20.5915781 221.644225,20.6030868 220.645139,22.5551649 L215.773515,32.0736556 L204.959031,33.6398889 C202.772518,33.9565557 202.277071,35.4643099 203.85112,37.0062793 L211.587264,44.5847628 L209.820139,54.9566823 C209.448273,57.1393051 210.743624,58.0908935 212.699847,57.0890483 L222.276312,52.1846301 L232.159062,57.1914992 C234.130546,58.1903066 235.426302,57.2318666 235.054752,55.0597644 L233.26219,44.5803394 L241.108339,37.0904554 C242.705359,35.5659498 242.226587,34.0676577 240.046876,33.7450961 L229.175859,32.1363633 L224.280833,22.5548891 Z" id="Path-83" stroke="#A2ADB2" fill="#A2ADB2" stroke-linecap="round" stroke-linejoin="round"></path>
            <path d="M54.7909313,86.5569779 C53.7873168,84.5925133 52.157042,84.5956902 51.1478257,86.5675615 L47.9942434,92.7292321 L40.9536414,93.748904 C38.7701056,94.0651397 38.2834158,95.5787596 39.8556013,97.1189043 L44.8788938,102.039823 L43.7338529,108.7605 C43.3632112,110.935936 44.6543386,111.88437 46.6178652,110.878784 L52.8335347,107.695539 L59.2728072,110.957849 C61.2454823,111.957259 62.5415428,110.99545 62.1715723,108.83258 L61.0090718,102.036532 L66.1037933,97.1731426 C67.7033241,95.6462406 67.2275314,94.1461456 65.0483842,93.8236674 L57.9680813,92.7758983 L54.7909313,86.5569779 Z" id="Path-83" stroke="#A2ADB2" fill="#A2ADB2" stroke-linecap="round" stroke-linejoin="round" transform="translate(53.000000, 97.883721) rotate(39.000000) translate(-53.000000, -97.883721) "></path>
            <path d="M1150.88249,739.772376 C1150.38241,738.79352 1149.56711,738.80089 1149.06363,739.78462 L1145.61996,746.513078 L1137.96996,747.621008 C1136.88198,747.778577 1136.63622,748.529563 1137.42845,749.305649 L1142.89403,754.659846 L1141.64192,762.008983 C1141.45579,763.101434 1142.09389,763.582976 1143.07635,763.079825 L1149.85434,759.608596 L1156.83085,763.143084 C1157.8157,763.642033 1158.46297,763.163166 1158.27737,762.078155 L1157.00794,754.656965 L1162.55124,749.365364 C1163.35137,748.601567 1163.10918,747.85056 1162.02329,747.689866 L1154.34707,746.553911 L1150.88249,739.772376 Z" id="Path-83" stroke="#A2ADB2" fill="#A2ADB2" stroke-linecap="round" stroke-linejoin="round"></path>
        </g>
    </g>
</svg>