<?xml version="1.0" encoding="utf-8"?>
<!-- Generator: Adobe Illustrator 16.0.4, SVG Export Plug-In . SVG Version: 6.00 Build 0)  -->
<!DOCTYPE svg PUBLIC "-//W3C//DTD SVG 1.1//EN" "http://www.w3.org/Graphics/SVG/1.1/DTD/svg11.dtd">
<svg version="1.1" xmlns="http://www.w3.org/2000/svg" xmlns:xlink="http://www.w3.org/1999/xlink" x="0px" y="0px" width="200px"
	 height="200px" viewBox="0 0 200 200" enable-background="new 0 0 200 200" xml:space="preserve">
<g id="Layer_1">
</g>
<g id="graphics">
	<g>
		<g>
			<g>
				<path fill="#6ECCF6" d="M99.651,134.988c0-33.771,25.087-55.482,56.285-55.482c20.906,0,34.575,9.971,43.099,22.193
					l-15.277,8.844c-5.79-8.041-15.921-14.312-27.821-14.312c-21.228,0-36.987,16.082-36.987,38.758
					c0,22.354,15.76,38.756,36.987,38.756c10.936,0,20.584-4.986,25.409-9.65v-16.562h-32.163v-16.564H200v40.043
					c-10.453,11.74-25.569,19.619-44.063,19.619C124.738,190.629,99.651,168.598,99.651,134.988z"/>
			</g>
		</g>
		<g>
			<polygon fill="#2E70BE" points="120.141,190.875 0,190.875 0,164.699 22.225,164.699 22.225,142.475 44.45,142.475 44.45,120.25 
				66.676,120.25 66.676,98.024 88.901,98.024 88.901,75.8 111.127,75.8 111.127,53.575 133.353,53.575 133.353,31.351 
				155.578,31.351 155.578,9.125 181.755,9.125 181.755,73.962 177.805,73.962 177.805,13.077 159.529,13.077 159.529,35.301 
				137.304,35.301 137.304,57.526 115.078,57.526 115.078,79.751 92.853,79.751 92.853,101.975 70.627,101.975 70.627,124.201 
				48.401,124.201 48.401,146.426 26.176,146.426 26.176,168.65 3.951,168.65 3.951,186.924 120.141,186.924 			"/>
		</g>
	</g>
</g>
</svg>
