<?xml version="1.0" encoding="utf-8"?>
<!-- Generator: Adobe Illustrator 16.0.4, SVG Export Plug-In . SVG Version: 6.00 Build 0)  -->
<!DOCTYPE svg PUBLIC "-//W3C//DTD SVG 1.1//EN" "http://www.w3.org/Graphics/SVG/1.1/DTD/svg11.dtd">
<svg version="1.1" id="Layer_1" xmlns="http://www.w3.org/2000/svg" xmlns:xlink="http://www.w3.org/1999/xlink" x="0px" y="0px"
	 width="25px" height="25px" viewBox="0 0 25 25" enable-background="new 0 0 25 25" xml:space="preserve">
<g id="logo_googleg_48dp" transform="translate(15.000000, 15.000000)">
	<path id="Shape" fill="#4285F4" d="M6.641-1.795c0-0.639-0.059-1.252-0.164-1.841H-2v3.482h4.844
		C2.635,0.971,2.001,1.924,1.048,2.562v2.258h2.909C5.658,3.253,6.641,0.945,6.641-1.795L6.641-1.795z"/>
	<path id="Shape_1_" fill="#34A853" d="M-2,7c2.43,0,4.467-0.806,5.957-2.181L1.048,2.562
		C0.242,3.102-0.789,3.42-2,3.42c-2.344,0-4.328-1.582-5.036-3.71h-3.007v2.332C-8.562,4.983-5.518,7-2,7L-2,7z"/>
	<path id="Shape_2_" fill="#FBBC05" d="M-7.036-0.29C-7.216-0.83-7.318-1.406-7.318-2
		c0-0.593,0.103-1.17,0.282-1.71v-2.332h-3.007C-10.652-4.827-11-3.452-11-2s0.348,2.826,0.957,4.042L-7.036-0.29L-7.036-0.29z"/>
	<path id="Shape_3_" fill="#EA4335" d="M-2-7.42c1.321,0,2.508,0.454,3.44,1.346l2.581-2.581
		C2.463-10.108,0.426-11-2-11c-3.518,0-6.562,2.017-8.043,4.958l3.007,2.332C-6.328-5.837-4.344-7.42-2-7.42L-2-7.42z"/>
	<path id="Shape_4_" fill="none" d="M-11-11H7V7h-18V-11z"/>
</g>
</svg>
