<?xml version="1.0" encoding="utf-8"?>
<!-- Generator: Adobe Illustrator 16.0.4, SVG Export Plug-In . SVG Version: 6.00 Build 0)  -->
<!DOCTYPE svg PUBLIC "-//W3C//DTD SVG 1.1//EN" "http://www.w3.org/Graphics/SVG/1.1/DTD/svg11.dtd">
<svg version="1.1" xmlns="http://www.w3.org/2000/svg" xmlns:xlink="http://www.w3.org/1999/xlink" x="0px" y="0px" width="200px"
	 height="200px" viewBox="0 0 200 200" enable-background="new 0 0 200 200" xml:space="preserve">
<g id="Layer_1">
	<g>
		<path fill="#6ECCF6" d="M200,37.973c-7.358,3.264-15.267,5.47-23.567,6.462c8.473-5.079,14.979-13.118,18.042-22.701
			c-7.929,4.701-16.71,8.118-26.057,9.956c-7.484-7.975-18.148-12.956-29.951-12.956c-22.659,0-41.032,18.371-41.032,41.03
			c0,3.216,0.364,6.348,1.064,9.353c-34.102-1.713-64.336-18.048-84.573-42.874c-3.533,6.062-5.556,13.109-5.556,20.63
			c0,14.234,7.242,26.795,18.253,34.153c-6.727-0.214-13.054-2.061-18.585-5.133c-0.004,0.172-0.004,0.344-0.004,0.517
			c0,19.88,14.145,36.463,32.915,40.233c-3.442,0.937-7.068,1.44-10.81,1.44c-2.644,0-5.215-0.258-7.721-0.738
			c5.222,16.302,20.376,28.165,38.332,28.495c-14.044,11.008-31.736,17.566-50.96,17.566c-3.313,0-6.579-0.193-9.789-0.575
			c18.158,11.644,39.726,18.436,62.898,18.436c75.474,0,116.745-62.522,116.745-116.746c0-1.777-0.04-3.547-0.118-5.308
			C187.543,53.428,194.499,46.201,200,37.973L200,37.973z M200,37.973"/>
	</g>
</g>
<g id="graphics">
</g>
</svg>
