<?xml version="1.0" encoding="utf-8"?>
<!-- Generator: Adobe Illustrator 16.0.4, SVG Export Plug-In . SVG Version: 6.00 Build 0)  -->
<!DOCTYPE svg PUBLIC "-//W3C//DTD SVG 1.1//EN" "http://www.w3.org/Graphics/SVG/1.1/DTD/svg11.dtd">
<svg version="1.1" xmlns="http://www.w3.org/2000/svg" xmlns:xlink="http://www.w3.org/1999/xlink" x="0px" y="0px" width="25px"
	 height="25px" viewBox="0 0 25 25" enable-background="new 0 0 25 25" xml:space="preserve">
<g id="Layer_1">
</g>
<g id="graphics">
</g>
<g id="Isolation_Mode">
	<g>
		<g>
			<path fill="#FFFFFF" d="M1.591,20.137c0,1.807,1.465,3.271,3.272,3.271h15.273c1.807,0,3.271-1.465,3.271-3.271V4.863
				c0-1.808-1.465-3.272-3.271-3.272H4.863c-1.807,0-3.272,1.465-3.272,3.272V20.137z"/>
		</g>
		<g>
			<path fill="#a1b1bf" d="M20.137,24.5H4.863c-2.406,0-4.363-1.956-4.363-4.363V4.863C0.5,2.458,2.458,0.5,4.863,0.5h15.273
				c2.407,0,4.363,1.958,4.363,4.363v15.273C24.5,22.544,22.544,24.5,20.137,24.5z M4.863,2.682c-1.203,0-2.182,0.979-2.182,2.182
				v15.273c0,1.202,0.979,2.182,2.182,2.182h15.273c1.202,0,2.182-0.979,2.182-2.182V4.863c0-1.203-0.979-2.182-2.182-2.182H4.863z"
				/>
		</g>
	</g>
</g>
</svg>
