<?xml version="1.0" encoding="utf-8"?>
<!-- Generator: Adobe Illustrator 16.0.4, SVG Export Plug-In . SVG Version: 6.00 Build 0)  -->
<!DOCTYPE svg PUBLIC "-//W3C//DTD SVG 1.1//EN" "http://www.w3.org/Graphics/SVG/1.1/DTD/svg11.dtd">
<svg version="1.1" xmlns="http://www.w3.org/2000/svg" xmlns:xlink="http://www.w3.org/1999/xlink" x="0px" y="0px" width="200px"
	 height="200px" viewBox="330 240 200 200" enable-background="new 330 240 200 200" xml:space="preserve">
<g id="Layer_1">
	<path fill="#6ECCF6" d="M511.25,265h-162.5c-10.355,0-18.75,8.395-18.75,18.75v112.5c0,10.355,8.395,18.75,18.75,18.75h162.5
		c10.355,0,18.75-8.395,18.75-18.75v-112.5C530,273.395,521.605,265,511.25,265z M511.25,283.75v15.939
		c-8.759,7.132-22.722,18.223-52.573,41.598c-6.578,5.175-19.609,17.606-28.677,17.462c-9.065,0.146-22.101-12.289-28.677-17.462
		c-29.847-23.371-43.813-34.464-52.573-41.598V283.75H511.25z M348.75,396.25v-72.501c8.951,7.129,21.644,17.134,40.991,32.284
		c8.538,6.721,23.49,21.557,40.259,21.467c16.687,0.09,31.449-14.531,40.255-21.464c19.347-15.149,32.044-25.157,40.995-32.287v72.5
		H348.75z"/>
</g>
<g id="graphics">
</g>
</svg>
