<?xml version="1.0" encoding="utf-8"?>
<!-- Generator: Adobe Illustrator 16.0.4, SVG Export Plug-In . SVG Version: 6.00 Build 0)  -->
<!DOCTYPE svg PUBLIC "-//W3C//DTD SVG 1.1//EN" "http://www.w3.org/Graphics/SVG/1.1/DTD/svg11.dtd">
<svg version="1.1" xmlns="http://www.w3.org/2000/svg" xmlns:xlink="http://www.w3.org/1999/xlink" x="0px" y="0px" width="450px"
	 height="100px" viewBox="0 0 450 100" enable-background="new 0 0 450 100" xml:space="preserve">
<g id="Layer_1">
</g>
<g id="graphics">
	<g>
		<polygon fill="#6ECCF6" points="84.612,5 84.612,16.006 73.606,16.006 73.606,27.015 62.598,27.015 62.598,38.022 51.589,38.022 
			51.589,49.029 51.589,49.029 51.589,49.031 51.589,49.029 40.582,49.029 40.582,60.037 40.582,60.037 40.582,60.037 
			40.582,60.037 29.573,60.037 29.573,71.045 29.575,71.045 29.573,71.045 29.573,71.045 18.565,71.045 18.565,82.05 18.565,82.05 
			18.565,82.05 7.559,82.05 7.559,93.062 18.565,93.062 83.032,93.062 64.852,78.674 62.556,61.922 66.553,49.642 83.744,42.769 
			95.621,42.632 95.621,5 		"/>
		<path fill="#2E70BE" d="M54.279,67.319c0-16.928,12.837-27.68,28.562-27.68c11.072,0,18.051,5.616,22.063,11.955l-9.387,5.134
			c-2.487-3.771-7.06-6.979-12.676-6.979c-9.789,0-16.849,7.461-16.849,17.57c0,10.107,7.06,17.573,16.849,17.573
			c4.733,0,9.147-2.087,11.313-4.096v-6.416H80.033v-9.949h25.515v20.54C100.092,91.067,92.47,95,82.841,95
			C67.116,95,54.279,84.168,54.279,67.319z"/>
		<path fill="#2E70BE" d="M113.713,94.038V55.286h10.189v5.213c2.808-3.367,7.541-6.175,12.357-6.175v9.945
			c-0.723-0.159-1.604-0.238-2.808-0.238c-3.37,0-7.864,1.925-9.549,4.413v25.594H113.713z"/>
		<path fill="#2E70BE" d="M164.129,94.038v-4.096C161.481,93.154,156.909,95,151.855,95c-6.179,0-13.401-4.171-13.401-12.837
			c0-9.148,7.222-12.516,13.401-12.516c5.214,0,9.706,1.684,12.274,4.733v-4.892c0-3.933-3.371-6.503-8.506-6.503
			c-4.091,0-7.941,1.607-11.151,4.574l-4.012-7.142c4.735-4.253,10.832-6.095,16.93-6.095c8.905,0,17.009,3.528,17.009,14.682
			v25.032H164.129z M164.129,84.729v-4.812c-1.684-2.25-4.896-3.45-8.183-3.45c-4.012,0-7.303,2.167-7.303,5.854
			c0,3.691,3.291,5.778,7.303,5.778C159.234,88.101,162.446,86.979,164.129,84.729z"/>
		<path fill="#2E70BE" d="M209.692,94.038v-4.975c-3.048,3.85-7.22,5.937-11.953,5.937c-9.708,0-17.17-7.383-17.17-20.378
			c0-12.599,7.299-20.298,17.17-20.298c4.574,0,8.905,1.921,11.953,5.937V40.523h10.27v53.515H209.692z M209.692,81.521v-13.72
			c-1.684-2.566-5.375-4.412-8.745-4.412c-5.856,0-9.866,4.571-9.866,11.232c0,6.737,4.01,11.312,9.866,11.312
			C204.317,85.935,208.008,84.089,209.692,81.521z"/>
		<path fill="#2E70BE" d="M226.172,74.622c0-11.232,8.343-20.298,20.058-20.298c11.637,0,19.416,8.662,19.416,21.257v2.408h-28.803
			c0.722,4.736,4.571,8.666,11.149,8.666c3.292,0,7.787-1.363,10.271-3.771l4.578,6.741C258.987,93.154,252.892,95,246.872,95
			C235.077,95,226.172,87.059,226.172,74.622z M246.229,62.669c-6.337,0-9.065,4.412-9.466,8.262h19.095
			C255.537,67.239,252.971,62.669,246.229,62.669z"/>
		<path fill="#6ECCF6" d="M269.671,67.319c0-16.528,12.437-27.68,28.564-27.68c11.715,0,18.535,6.337,22.306,13.08l-9.79,4.812
			c-2.25-4.333-7.059-7.783-12.516-7.783c-9.787,0-16.849,7.461-16.849,17.57c0,10.107,7.062,17.573,16.849,17.573
			c5.457,0,10.266-3.45,12.516-7.783l9.79,4.729C316.771,88.501,309.95,95,298.235,95C282.107,95,269.671,83.768,269.671,67.319z"/>
		<path fill="#6ECCF6" d="M325.16,94.038V55.286h10.19v5.213c2.809-3.367,7.541-6.175,12.357-6.175v9.945
			c-0.725-0.159-1.607-0.238-2.812-0.238c-3.367,0-7.858,1.925-9.546,4.413v25.594H325.16z"/>
		<path fill="#6ECCF6" d="M375.578,94.038v-4.096C372.929,93.154,368.354,95,363.301,95c-6.179,0-13.396-4.171-13.396-12.837
			c0-9.148,7.217-12.516,13.396-12.516c5.216,0,9.711,1.684,12.277,4.733v-4.892c0-3.933-3.37-6.503-8.507-6.503
			c-4.088,0-7.941,1.607-11.149,4.574l-4.013-7.142c4.733-4.253,10.829-6.095,16.928-6.095c8.904,0,17.008,3.528,17.008,14.682
			v25.032H375.578z M375.578,84.729v-4.812c-1.687-2.25-4.896-3.45-8.183-3.45c-4.016,0-7.303,2.167-7.303,5.854
			c0,3.691,3.287,5.778,7.303,5.778C370.683,88.101,373.892,86.979,375.578,84.729z"/>
		<path fill="#6ECCF6" d="M396.334,94.038V64.19h-6.42v-8.904h6.42v-1.607c0-8.744,5.216-13.959,12.995-13.959
			c3.771,0,7.782,1.043,10.111,3.691l-3.854,6.178c-1.042-0.962-2.408-1.525-4.25-1.525c-2.888,0-4.812,1.846-4.812,5.615v1.607
			h7.862v8.904h-7.862v29.848H396.334z"/>
		<path fill="#6ECCF6" d="M423.026,84.33V64.19h-6.42v-8.904h6.42V44.694h10.19v10.592h7.858v8.904h-7.858v17.41
			c0,2.488,1.279,4.334,3.529,4.334c1.524,0,2.967-0.562,3.529-1.205l2.166,7.783c-1.524,1.362-4.254,2.487-8.504,2.487
			C426.797,95,423.026,91.309,423.026,84.33z"/>
	</g>
</g>
</svg>
