<?xml version="1.0" standalone="no"?>
<!DOCTYPE svg PUBLIC "-//W3C//DTD SVG 20010904//EN"
 "http://www.w3.org/TR/2001/REC-SVG-20010904/DTD/svg10.dtd">
<svg version="1.0" xmlns="http://www.w3.org/2000/svg"
 width="885.000000pt" height="885.000000pt" viewBox="0 0 885.000000 885.000000"
 preserveAspectRatio="xMidYMid meet">
<metadata>
Created by potrace 1.11, written by Peter Selinger 2001-2013
</metadata>
<g transform="translate(0.000000,885.000000) scale(0.100000,-0.100000)"
fill="#000000" stroke="none">
<path d="M0 4425 l0 -4425 4425 0 4425 0 0 4425 0 4425 -4425 0 -4425 0 0
-4425z m7040 2240 l0 -1145 23 -4 c167 -34 291 -64 377 -92 141 -47 380 -165
515 -256 146 -97 275 -200 270 -215 -6 -19 -475 -573 -485 -573 -5 0 -47 30
-92 67 -281 227 -570 349 -907 383 -433 43 -773 -57 -1086 -321 -149 -125
-264 -277 -361 -474 -35 -71 -74 -164 -88 -206 -165 -516 -74 -1115 231 -1520
201 -267 488 -446 831 -520 126 -26 400 -37 539 -20 278 35 539 126 750 263
l83 53 0 403 0 402 -555 0 -555 0 0 335 0 335 925 0 925 0 0 -918 0 -919 -62
-50 c-377 -304 -802 -495 -1298 -585 -113 -21 -155 -23 -450 -23 -294 0 -336
2 -445 22 -66 13 -136 27 -155 33 -23 7 -950 10 -2772 10 l-2738 0 0 405 0
405 410 0 410 0 0 420 0 420 410 0 410 0 0 425 0 425 420 0 420 0 2 418 3 417
413 3 412 2 0 420 0 420 415 0 415 0 0 425 0 425 415 0 415 0 0 415 0 415 400
0 400 0 0 410 0 410 405 0 405 0 0 -1145z"/>
</g>
</svg>
